<?xml version="1.0" encoding="utf-8"?>
<!-- Generator: Adobe Illustrator 27.0.0, SVG Export Plug-In . SVG Version: 6.00 Build 0)  -->
<svg version="1.1" id="圖層_1" xmlns="http://www.w3.org/2000/svg" xmlns:xlink="http://www.w3.org/1999/xlink" x="0px" y="0px"
	 viewBox="0 0 1330.6 328.7" style="enable-background:new 0 0 1330.6 328.7;" xml:space="preserve">
<style type="text/css">
	.st0{fill:#171818;}
	.st1{fill:#171818;stroke:#171818;stroke-width:3;stroke-miterlimit:10;}
	.st2{stroke:#000000;stroke-width:5.8943;stroke-miterlimit:10;}
	.st3{fill:#FFFFFF;stroke:#000000;stroke-width:5.8943;stroke-miterlimit:10;}
	.st4{fill:#FFFFFF;}
	.st5{fill:#191919;}
	.st6{fill:url(#SVGID_1_);}
	.st7{fill:url(#SVGID_00000066495145611950807520000012469089589251871421_);}
</style>
<g>
	<g>
		<path class="st5" d="M1187.2,50.2c9.9,0,19.8,0,29.8,0c2,1,3.9,2.3,6.4,2c0.5-0.1,1.1,0.4,1.5,0.8c1.9,1.9,4.1,3.6,5.4,5.8
			c3.5,5.8,4.8,11.9,1.5,18.3c-2.7,5.1-4.7,10.5-6.7,16c-2.9,8-5.7,16-9.2,23.8c-2.4,5.3-4.3,10.8-1.5,16.8c1.1,2.2-0.5,3.9-2.6,4.8
			c-3.1,1.4-6.2,2.6-9.2,4.2c-3.7,1.9-4,4.2-1.2,7.2c0.6,0.6,1.1,1.3,1.5,2c1.6,2.8,4,3.2,6.8,2.5c4.3-1,8.6-1.2,12.9,0.1
			c0.6,0.2,1.4,0.3,2,0c4-1.6,7.9-0.7,11.8,0.3c1,0.3,2,0.3,3,0.3c10.3,0.4,20.3,1.8,29.1,8.1c1.9,1.4,3.3,2.9,4.2,5
			c0.4,1,0.9,2,1.4,3c0,2.1,0,4.1,0,6.2c-0.7,1.6-2.1,1.2-3.3,1.2c-0.8,0-1.5-0.3-2.3-0.3c-9.3,0.3-18,3.2-26.9,5.2
			c-1.3,0.3-2.5,1.3-3.9,1.1c-3.1-0.5-6.1-0.3-9.2-0.2c-1,0-1.7-0.1-2.1-1c-0.5-1,0.2-1.6,0.8-2.2c2.1-1.9,4.6-2.7,7.3-3.5
			c2.6-0.7,5.3-1,7.5-2.9c1.3-1.1,1.2-1.4,0-2.3c-5.6-4.2-12.5-5.1-18.9-7.1c-4.6-1.4-9.6-0.5-14.4-1.9c-3.4-1.1-5.4,0.8-5.2,4.4
			c0.1,3.3,0,6.7-0.3,9.9c-1.2,14.6,0.2,29.1-0.3,43.7c-0.2,5.6,0,11.2,0,16.8c0,0.6-0.1,1.2,0.1,1.8c1.5,7,0.8,14.1,1.4,21.1
			c0.4,3.9,0,7.9,0.7,11.7c0.5,2.8-0.3,5.4,0.1,8.1c1.2,7.7,4,15.1,4.7,22.9c0.3,3.7,1.3,7.7-1.5,11.1c-1.2,0-2.4,0-3.6,0
			c-7-3.5-9.4-10.3-11.3-17c-1.3-4.6-1.9-9.4-2.5-14.2c-1.1-9.5-1.9-19-1.7-28.6c0-0.5,0-1.1-0.2-1.5c-2.1-4.7-0.8-9.9-1.9-14.8
			c-0.2-0.9-0.1-2-0.2-3c-0.3-6.1,0.9-12,1-18.1c0-4.9-0.3-9.9-0.2-14.8c0.2-7.3,0.8-14.5,1.1-21.8c0.2-5.7-0.6-11.4,0.2-17
			c0.1-0.7-0.3-1.3-0.7-1.8c-3.4-4-8.6-3.9-11.6,0.5c-1,1.4-2.1,2.7-3.1,4c-2.8,3.5-6.3,6.4-7.7,11c-2.1,6.9-1.6,14.1-3.2,21.1
			c-0.9,3.9-1.6,7.9-2.2,11.8c-1.9,13.4-4.6,26.6-5.4,40.1c-0.4,6.5-1.4,13-2.4,19.5c-0.4,2.7-1.9,4.7-3.7,6.5
			c-1.1,1.2-2.5,1.3-3.4-0.4c-0.9-1.7-2.2-2-3.9-1.4c-1.4,0.5-2.4,0-3.4-1.1c-3-3.2-5.2-7-8.5-10.1c-3.1-2.9-3.2-6.1-1.1-9.7
			c0.5-0.9,0.9-1.8,1.2-2.8c2.1-6.3,3.2-12.7,3.1-19.3c-0.1-3.7-0.3-7.5,0.3-11.2c0.7-4.1,1.2-8.2,0.3-12.3c-0.7-3.3-1-3.4-4-1.7
			c-2,1.1-2.9,3.4-4.9,4.5c-3.9,2.1-7.5,4.6-11.2,7c-6.8,4.4-14.2,7-22.2,7.3c-4,0.1-8.3,0.5-11.5-2.8c0-1.9,0-3.8,0-5.6
			c2.1-4.4,6-6.5,10.5-7.9c1.4-0.4,2.7-1.1,3.9-1.9c5.6-4.2,11.8-7.5,17.5-11.4c12.3-8.3,22.2-19.1,31.1-30.8c2-2.6,1.6-3.9-1.5-5.3
			c-2.8-1.3-5.6-2.6-7.8-4.6c-3.8-3.4-8.2-6.1-11.6-10c-1.2-1.4-2.7-2.3-4.2-3.3c-2.5-1.6-4.5-3.5-4.8-7c-0.2-2.7-0.1-5.5-0.5-8.2
			c-1.1-8.3-2.2-16.7-3.5-25c-0.6-3.9-0.1-7.9-0.5-11.7c-0.8-6.9-1.5-13.7-0.5-20.6c0.2-1.2,0.2-2.2,1.7-2.7
			c1.6-0.5,2.4-0.2,3.5,1.1c2.5,3.1,4.8,6.2,6.3,9.9c0.9,2,2.6,3.2,4.4,3.5c1.6,0.2,1.8-2,2.4-3.2c3.9-7.4,9.3-13.2,16.9-16.8
			c3.3-1.5,6.3-3.9,10.2-3.6c0.4,0,1-0.4,1.3-0.7c1.1-1.1,2.4-1.4,3.9-1.7c3.3-0.7,6.6-1.6,9.9-2.5c4.7-1.3,9.4-2.5,14.3-2.1
			C1184.3,50.6,1185.7,50.7,1187.2,50.2z M1204.2,55c-6.5,0.3-12.8,1.9-18.5,4.9c-6.4,3.3-6.1,6.4-3.2,11.1c1.5,2.5,1.6,5,1.3,7.5
			c-0.5,4.5-1.6,9-0.9,13.4c1,6.8,0.6,6.8,6.1,8.2c4.1,1,8.3,1.5,11.8,4.3c1.7,1.3,4.6-0.1,5.2-2.2c1.6-6,2.9-12.1,4.6-18
			c2.1-7.4,4-14.7,3.3-22.5c-0.3-3.1-1.5-4.9-4.3-5.9C1207.8,55.1,1206,54.9,1204.2,55z M1168.5,84.6c0-0.8-0.1-1.6,0-2.3
			c0.3-1.9,0.2-4-1.6-4.7c-1.5-0.6-2.9,1-4.1,2.1c-2.3,2.4-5.4,2.6-8.2,2.2c-3.9-0.6-7.7-2.1-11.6-3c-3.3-0.8-7.2,1.1-8,3.4
			c-2.8,8.2-1.5,16.6-0.9,24.9c0.3,4.5,1.2,9,1.9,13.5c0.2,1.4-0.1,3,0.5,4.3c1.5,3.1,1.9,6.3,2.2,9.6c0.2,1.9,1,4.1,3.4,3.7
			c4.8-0.8,9.4-2.3,13.7-4.8c0.8-0.5,1.2-1.1,0.3-1.8c-3.7-3.2-6.5-7.4-11-9.8c-2.8-1.5-4.3-5.8-3.5-8.7c1.6-5.4,6.6-6.3,10.8-7.8
			c3.5-1.3,7.6-1,11.3-1.8c1.5-0.3,3.7-0.7,3.7-3.1C1167.4,94.9,1168.9,89.8,1168.5,84.6z M1148,207.8c1.6-2.1,3.6-4.1,4.6-6.4
			c1.9-4.5,4-8.8,6.1-13.2c1.1-2.2,1.9-4.5,2.9-6.8c0.2-0.6,0.3-1.2-0.2-1.6c-0.4-0.3-0.8-0.2-1.2,0.1c-4,2.7-8.7,4.7-9.9,10
			c-0.7,3-1.2,6-1.8,8.9c-0.5,2.3,0.2,4.7-1,7C1147.1,206.3,1147.1,207.1,1148,207.8z"/>
	</g>
	<g>
		<path class="st5" d="M652.4,175.3v1.7c-1.9,0.2-3.7,0.5-5.6,0.6c-6.9,0.2-13.8,0.4-20.7,0.6c-3.7,0.1-7.5,0.1-11.2,0
			c-1.5,0-3.1-0.3-4.8-0.5c0.3-0.5,0.4-0.8,0.6-1c3.5-4.4,2.9-7.9-2.1-10.5c-2.9-1.5-6-2.5-8.9-4.1c-1.5-0.8-2.9-2.1-4.2-3.3
			c-2.3-2.2-4.7-4.4-7-6.6c-2.3-2.2-4.7-4.4-6.9-6.7c-8-6.2-8-19-18-23.5c-4.6-1.8-9.1,1.8-10,6.4c-2.7,12.7-8.2,23.7-16.4,33.7
			c5.5,2.7,12.7,0,18.2,0c3.6-0.9,13.3,7.6,10.5,11.2c-3.6,3.6-10,4.6-14.2,7c-1.9,0.8-9.6-0.3-11,1s-2.4,3-2.8,5.3
			c-0.4-2.9,0.6-5.6,1.6-8.3s2.2-4.1,2-5.9c3-0.3,4.8-2.1,3.9-3.9c-5.5-8.2-15.5-0.9-19.8,5.3c-1.2,1.3-3.4,2.1-4.7,3.3
			c-3.2,0-5.7-0.2-8.2,0.1c-3.2,0.3-5.6-1.3-5.8-4.4c-0.1-3.1-0.2-6-0.5-8.7c4.4-12.1,1.7-24.8,7.2-36.7
			c6.4-12.7,10.9-25.5,14.7-39.4c0.5-2.7,1.2-5.3,2-8c2.4-7.9,6-15.8,11.5-23.6c1.8-0.9-2.7-3.6-3.6-7.3c12.7,0,35.5-7.3,36.4,7.3
			c1.4,10.9-2.3,21.4-6.9,31.8c-1.2,2.6-2.4,5.2-3.5,7.7c-9.5,15.2,3.2,26.2,14.3,35.4c1.4,1.4,3,2.7,4.6,4c1.7,1.3,3.3,2.6,5,3.9
			c3.2,2.5,6.8,4.3,10.1,6.6c2.1,1.5,4,3.2,6.1,4.8c0.7,0.5,1.5,1,2.4,1.3c3.2,1.3,6.6,2.3,9.5,4c6.6,3.8,14.2,4.5,21.3,6.8
			c2.5,0.8,5.1,2,7.1,3.7C647.2,169,649.7,172.3,652.4,175.3z"/>
		<path class="st5" d="M494.8,191c-0.3,3.9-0.1,7.3-0.9,10.4c-1.6,6.4-3.9,16.6-10.1,18.5c-2.2,0.6-4.4,1.6-6.2,2.9
			c-2.1,1.5-3.6,0.8-4.8-0.3c-1.1,1.1-1.9,2.3-3,3c-5.9,3.9-12,7.5-17.9,11.5c-2.2,1.5-3.8,3.8-5.6,5.8c-0.8,0.8-1.2,2.5-2.8,0.9
			c-0.1-0.1-0.7,0-0.9,0.2c-1.7,1.3-5.3-6.3-6.6-7.3v-8.6c0.4-2,0.8-4.1,1.3-6.1c1.1-4.3,5.1-6,7.9-8.7c2.1-2,4.7-3.1,5.4-6.5
			c0.3-1.3,2.5-2.3,4.4-3.1c-0.3,0.9-0.6,1.8-0.9,2.6c-0.5,1.3-1.2,2.6-1.6,3.9c-0.7,2.2,0.3,3.8,2.4,3.5c3.8-0.6,7.5-1.5,11.1-2.7
			c3.4-1.1,6.8-2.3,9.8-4.1c4.1-2.3,7.9-5.1,11.8-7.8c1.7-1.2,3.4-2.4,4.8-3.9C493.4,194.3,493.9,192.8,494.8,191z"/>
		<path class="st5" d="M575.5,243.1c-1.8,2-4.3,3.5-5.8,5.7c-2.8,4.3-38.1,24.7-41.9,27.3c-0.5,0.4,8.6-13.8,10.9-17.2
			c0.3-0.5,0.7-1.2,0.7-1.2c3.5-7.1,6.4-14.5,11.4-20.9c0.9-1.1,1.5-2.6,1.8-4c0.3-1.3-0.2-2.4-1.4-3.6c-1.7-1.7-2.5-4.4-3.7-6.9
			c3.4,1,22.4,2.1,25.3,3.1c4.1,1.4,6.7,4.5,7.3,8.8C580.5,238,577.8,240.6,575.5,243.1z"/>
		<path class="st5" d="M486.2,158.1c-1.3,4.1-4.9,7.5-7.2,11.3c-2.7,4.3-5.3,8.7-7.5,13.3c-0.7,1.4-0.1,3.5,0.3,5.1
			c1,3.7-0.1,5.1-3.7,4.1c-2.2-0.6-3.3,0.4-4.6,1.9c-1.9,2.4-4,4.6-6.1,6.9c-0.4-0.2-0.7-0.5-1.1-0.7c0.6-1.3,0.9-2.9,1.9-3.9
			c4.1-4.2,6.4-11.4,1.6-15.3c0.1-0.1,0.1-0.4,0.3-0.4c5.9-1.8,5.9-1.8,4.6-8.4c-0.5-2.7-0.4-5.6-1.3-8.2c-0.5-1.4-2.4-2.8-4-3.3
			c-2.1-0.7-4.6-0.3-5.5,2.2c-1.3,3.4-2.1,6.9-3.2,10.3c0.2,0.1,0.5,0.2,0.7,0.2c-0.2,0.1-0.3,0.2-0.5,0.2
			c-7.3-1.4-7.6-4.2-4.5-10.3c0.9-1.7,1.1-3.7,1.8-5.5c0.3-0.8,0.7-1.8,1.4-2.3c1.6-1.4,3.2-2.8,4.8-4.2c1.6-1.4,3.3-2.7,5.1-3.7
			c7.5-3.6,4.8-12.7,3-15.4c-6.4-6.4-19.1-4.6-26.4-13.7c-6.4-9.1-9.1-20.9-0.9-30c0.9,3.6,3.6,6.4,6.4,7.3
			c16.4,1.8,36.4-8.2,46.4,7.3c10,13.7-15.5,24.6-19,39.4c1.6,2.1,5.2,1.7,8.5,2C485,145.1,487.9,152.7,486.2,158.1z"/>
		<path class="st5" d="M564.3,204.9c-2.5,2.5-16.4,9.6-19,11.9c-3.8,3.1-6.3,6.9-6.5,12c-2.3-2.2-2.3-2.3-1.2-5.1
			c2-5.1,4.1-10.2,5.9-15.4c1.2-3.5-0.2-6.8-1.9-9.8c-1.3-2.3-2.5-4.6-3.7-6.8c1.9,1,3.5,1.9,5.2,2.6c2.9,1.2,17.1-2.7,20-1.5
			c1.1,0.5,2.1,1.2,2.9,2.2C568.7,198.5,568.4,200.8,564.3,204.9z"/>
	</g>
	<g>
		<path class="st5" d="M884.6,289.9c0,0-26.8,17.8-105.4-86c-1.3-1.7-1.8-2.9-3.8-3.4c-3.6-0.8-3.7-1.2-2.6-4.6
			c0.2-0.7,0.4-1.5,0.5-2.2c0.8-3.1,1.6-6.1-1.8-8.3c-0.3-0.2-0.2-0.9-0.3-1.4c-0.7-2.5-1.1-5.1-2.1-7.5c-2-5.1-4.3-10-6.3-15.1
			c-0.4-1.1-0.1-2.5-0.5-3.5c-1.3-2.9-2.9-5.8-4.4-8.7c-2.1-4.3-5.9-4.9-8.7-1.1c-3.2,4.1-6.1,8.4-8.9,12.9
			c-2.8,4.4-2.6,4.5,1.3,7.6c1.6,1.2,3.1,3,4.8,3.4c3.3,0.8,6.8,0.9,9.9,1.2c0.2,0,0.4,0.2,0.5,0.4c2.7,5.3,5.4,10.4,7.9,15.6
			c2.1,4.3,3.5,8.9,1.6,13.6c-1.1,2.6-2.9,4.9-4.5,7.2c-3.7,5.2-7.1,10.6-11.3,15.3c-4.9,5.6-10.1,11.1-16.4,15.4
			c-2.4,1.6-4.9,4.3-8.2,2.4c-2.4-1.4-4.7-3.3-6.7-5.3c-4.1-4.1-8-8.4-11.7-12.8c-2.1-2.5-4.1-5.2-5.5-8.1c-1.3-2.6-2.3-5.6-2.3-8.4
			c-0.1-5.2,0.5-10.5,0.9-15.7c0.1-1,0.3-1.9,0.5-3.6c0.6,1.2,0.9,1.7,1,2.3c1.2,4.2,2.4,8.4,3.6,12.5c1.4,4.9,3.7,9.1,8.7,11
			c1.8,0.7,3.6,1.3,5.5,1.9c6.6,2.1,10.2,0.9,13.9-4.7c4-6,6-12.9,7.9-19.8c1-3.4-1.1-6.7-4.5-6.9c-1.9-0.1-4,0.6-5.6,1.6
			c-5.1,3.1-10.1,6.5-15.2,10c-0.3,0.2-0.7,0.1-0.9-0.1c-0.8-1-1.5-1.9-2.3-2.8c-2.6-2.9-3.3-6.2-3.5-10c-0.1-3.9,1.8-7.2,3.6-9.9
			c2.8-4,4.9-8,5.7-12.7c0.9-5.1-0.9-7.2-6.1-7c-4,0.2-7.6,1.6-9.8,4.2c-0.2,0.2-0.4,0.3-0.7,0.2c-1.9-0.6-3.6-1.6-4.9-1.2
			c-4.1,1.1-8.1,2.5-11.9,4.4c-2.4,1.1-4.3,3.2-6.4,4.9c-3,2.5-5.7,5.2-3.5,10.5c0.5,1.3,1.1,2.6,1.6,4c3.5,9.1,2.8,18.6,3.6,28
			c0,0.5-0.3,1-0.4,1.5c-0.2,1.5-0.7,3-0.6,4.5c0.4,4.7-0.8,9.3-1.9,13.8c-1.4,6.1-4.7,11.3-8.4,16.2c-6.3,8.2-14.3,6.6-19-1.2
			c-2-3.4-2.9-7.5-4.2-11.3c0-0.1,0-0.1,0-0.2v-13.7c0,0,0-0.1,0-0.1c0.6-3,1-6,1.7-9c2.4-9.8,4.8-19.7,7.6-29.4
			c1.6-5.8,2.2-11.6,2-17.5c-0.2-7.1-0.6-14.3-0.8-21.4c0-0.4,0.6-0.8,1.2-1.6c1.4,2.9,2.6,5.4,3.9,7.8c2,3.7,4.1,7.3,6.3,10.9
			c0.4,0.6,1.6,1.2,2.1,1c3-1,6.1-1.9,8.7-3.6c3.7-2.6,6.9-6,10.5-8.7c2.5-1.8,5.4-3.3,8.3-4.5c2.7-1.1,5.9-4.3,6.2-6.8
			c0.3-2.3,0.6-4.6,0.9-7.2c0.1-0.6,0.9-0.8,1.2-0.3c0.3,0.5,0.6,0.9,1,1.1c0.9,0.6,2.4,1.6,3.1,1.3c7.4-2.7,13.9-6.8,19-13
			c2.2-2.7,3.8-5.8,6.9-7.9c1.8-1.2,3.8-3.2,4.2-5.1c0.5-2.9,0.2-6.2-0.6-9c-1.8-5.9-4.2-11.6-6.5-17.4c-1-2.4-2.1-4.8-3.7-6.7
			c-1.8-2.3-3.9-2.3-5.7-0.1c-2.7,3.3-5.6,6.7-7.4,10.5c-2.4,5-3.9,10.5-5.7,15.8c-0.4,1.1-0.8,2.2-1.2,3.3
			c-0.3,0.7-1.3,0.5-1.3-0.3c0.1-1.7,0.3-3.3,0.6-4.9c1.9-7.7,4-15.4,6.1-23c1.3-4.9,2.7-9.8,8-12.1c0.1,0,0.2-0.1,0.3-0.1h9
			c0.1,0,0.2,0,0.3,0.1c2.6,1.3,3.6,3.7,4.5,6.3c1.7,4.5,3.7,8.9,5.7,13.4c0.9,2.1,2,4.2,3,6.3c1.3,2.8,2.2,5.8,3.8,8.4
			c0.9,1.4,1.5,3.6,4.1,3.6c4.4,0,8.9,0.2,13.3,0.5c5.6,0.4,10.1,2.4,11.7,7.8c1.3,4.5-0.1,8-2.8,11.4c-3.1,3.8-6.3,7.5-9.3,11.4
			c-1.4,1.8-2.1,3.7-1.2,6.1c1.5,3.7,2.7,7.6,4.2,11.3c2.9,7,5.9,13.9,8.9,20.9c0.3,0.6,0.7,1.2,1.1,1.7c1.5,1.7,3.3,1.5,4.5-0.4
			c0.9-1.6,2-3.2,2.3-5c0.9-5.4,1.5-10.8,2.1-16.3c0.4-3.2-1.1-5.7-3.1-8c-0.9-1.1-1.8-2.2-2.7-3.3c-0.2-0.3-0.2-0.8,0.2-1
			c1.7-1,3.2-2.3,5.1-0.6c0.6,0.5,1.1,1,1.8,1.5c1.9,1.5,3.5,3.4,6.5,2.2c2.6-1.1,5.4-1.7,8-2.7c3-1.1,4.7-0.5,4.8,2.4
			c0.2,4,0.8,8.2-0.1,12.1c-2.8,12.4-7.9,24-14.4,35c-1.2,2-2.6,4.1-1.7,6.4c0.1,0.2,0.1,0.5-0.1,0.7c0,0,0,0.1-0.1,0.1
			c0.3,0.8,0.4,1,0.7,1.8c0.6,0.1,1.1,0.7,1.4,1.8c0.4,1.5,1.1,3,1.9,4.4c7.1,11.7,86.9,69.7,88.1,88.5
			C885.1,289.9,884.8,289.9,884.6,289.9z"/>
		<path class="st5" d="M844.4,107.3v8.8c-0.4,0.9-1,1.7-1.3,2.6c-0.8,2.3-2.8,2.8-4.8,3.7c-5.7,2.6-10.6-0.3-15.8-1.4
			c-3.1-0.6-6.1-1.5-9.5-2.4c1.5-2.4,3-4.5,4.4-6.7c2.1-3.2,2.5-6.8,0.9-10.1c-0.8-1.6-2.9-2.9-4.7-3.7c-2.6-1.2-5.5-1.7-6.8-5.4
			c3.2-1.6,6.5-3.4,9.9-4.9c5.2-2.3,10.1-0.6,14.6,2.1C838,93.9,842.3,99.8,844.4,107.3z"/>
		<path class="st5" d="M705.8,114.7c-0.3-0.1-0.6-0.2-0.9-0.3c1-3,2-6,3.1-9.4C709.7,107.7,708.5,112.1,705.8,114.7z"/>
	</g>
	<g>
		<path class="st5" d="M1064.2,231l-2.2-0.5c-2.3-0.5-4.7-1.1-7-1.6c-0.6-0.1-2-0.1-2.5,1c-1,2.2-2.9,2.8-5.2,3.5
			c-1.4,0.5-2.9,0.9-4.2,1.8c-1.1,0.8-2.4,1.3-3.7,1.9c-0.8,0.4-1.7,0.8-2.5,1.2c-4.4,2.3-9,3.8-14.2,4.6c-1.1,0.2-2.2,0.3-3.2,0.5
			c-2.1,0.4-4.3,0.7-6.5,0.9c-4.1,0.3-8.4,0-13.9-1.1c-2.2-0.4-4.2-1.9-6.4-3.5c-0.8-0.6-1.6-1.2-2.4-1.7c-1.1-0.7-2.2-1.7-3.2-2.7
			l-0.7-0.6c-0.1-0.1-0.3-0.4-0.4-0.7c-0.1-0.1-0.1-0.2-0.2-0.3c-0.4-0.7-0.7-1.4-1-2.1c-0.8-1.6-1.5-3.2-2.5-4.7
			c-0.7-1.1-1.6-2-2.4-2.9c-0.5-0.5-0.9-1-1.4-1.5c-1.6-2-1.6-2,0.2-3.8c0.7-0.7,1.4-1.4,2.1-2.1c1.5-1.4,3-2.8,4.3-4.4
			c1.7-2,3.3-4.1,4.8-6.1c1.5-2,3.1-4.1,4.7-6c0.7-0.9,1.6-1.6,2.6-2.4c0.9-0.8,1.8-1.5,2.7-2.5c2.3-2.5,4.5-5.3,7-8.6
			c0.8-1.1,1.2-1.1,1.2-1.1c0.1,0,0.7,0.1,2.3,2.8c0.3,0.5,0.8,0.7,1.4,0.6c0.5-0.1,1-0.5,1.1-1l0.6-2.4c0.5-1.7,0.9-3.2,1.2-4.7
			c0.1-0.4,0-0.8,0-1c0.4-0.8,0.8-1.6,1.2-2.4c1.4-2.7,2.8-5.4,4.4-8c2.4-4,2.6-5.9-1-9.3c-2-1.9-2.5-3.4-1.6-5.4
			c0.2-0.6,0.3-1.3,0.2-1.9c-0.8-3.5-0.2-6.9,0.4-10.6c0.2-1.5,0.5-3.1,0.7-4.6c0.2-2.2,0.2-4.5,0.1-6.7c0-1.5-0.1-3.1,0-4.6
			c0-0.8,0.2-1.5,0.5-2.4c0.2-0.8,0.4-1.6,0.5-2.4c0.1-1.2,0.3-2.4,0.5-3.7c0.5-3.4,1.1-6.8,0.6-10.2c-0.5-3.4,0-6.6,0.5-9.9
			l0.1-0.4c0.7-4.8-2.4-9.2-8.7-12c-0.1,0-0.2-0.1-0.3-0.2c-0.1-0.1-0.2-0.2-0.3-0.2c-0.2-0.1-0.5-0.2-0.7-0.2h-8.2
			c-0.2,0-0.5,0.1-0.7,0.2c-1.8,1-3.7,2-5.5,3c-4.2,2.3-8.6,4.7-13,7l-0.5,0.3c-0.7,0.4-1.5,0.8-1.9,0.7c-0.1,0-0.5-0.3-1.1-1.5
			c-1.2-2.6-5.8-3.4-7.4-3.4c-2.2-0.1-4.4,0.5-6.6,1c-0.6,0.2-1.2,0.3-1.9,0.5c-1,0.2-2.2,0.8-2.9,1.9c-0.9,1.6-2.2,2.9-3.6,4.4
			c-1.9,2-3.8,4-5,6.9c-0.9,2.1-2.7,4-4.6,5.9c-0.9,0.9-1.8,1.8-2.6,2.8c-0.4,0.4-0.7,0.9-1.1,1.4c-0.3,0.4-0.6,0.8-0.9,1.1
			c-1.2,1.4-2.4,2.9-3.6,4.3c-2.3,2.8-4.6,5.6-6.9,8.4c-0.6,0.7-1.1,1.6-1.7,2.4c-0.1,0.1-0.1,0.2-0.2,0.3c-0.9-0.4-1.9-0.8-2.8-1.2
			c-2.9-1.2-5.9-2.5-9-3.6c-2.9-1.1-6-1.9-9.2-2.5c-1.4-0.3-3.3,0-5,0.8c-8.5,4-17.7,7.7-29.9,11.8c-1.1,0.4-2.1,0.8-3.1,1.2
			c-2.5,1.1-4.9,2.1-7.5,1.8c-0.8-0.1-1.5-0.4-1.6-0.5c-0.3-0.4-1.3-1.7-2.7-1.7c-1.4,0.1-2.3,1.4-2.8,2.3c-0.5,0.8-0.8,1.7-1.1,2.5
			c-0.1,0.3-0.3,0.7-0.4,1c-0.1,0.2-0.1,0.3-0.1,0.5v4.9c0,0.3,0.1,0.5,0.2,0.7l3.3,5.3c0.4,0.6,1.1,0.8,1.7,0.5l0.3-0.1
			c2.8,5.2,7.3,7.9,12.5,9c0.5,0.1,2,0.2,2.4-0.2c1-0.1,2-0.1,3-0.3c1-0.1,2-0.3,2.9-0.4c8,0.1,14.4-3.5,22.6-3.5
			c-4.6,6.4-8.2,12.7-10,20.8c-0.4,0.6-0.9,1.1-1.5,1.6c-1.1,0.9-2.3,1.8-3.7,2.6c-0.8,0.8-1.8,1.8-2.6,2.6
			c-7.9,7.6-17.1,14.4-24.1,23.4c-2.7,2.7,1.8,9.1,2.9,13.4c0.2,1.2,1,2.3,1.6,3.2c0.2,0.3,0.5,0.6,0.7,0.9c0.7,1.1,1.5,2.4,2.4,3.7
			c0.7,1,2,1.7,3.5,1.8c2.5,0.2,5.4-0.8,7.2-2.5c5.2-5,9.6-10.6,13.1-16.5c0.6-1.1,1.4-2,2.3-3.1c0.1-0.2,0.3-0.3,0.4-0.5
			c0.5,0.4,0.3,0.7,0.1,1.1c-0.3,0.5-0.3,1-0.3,1.3c0,0.1,0,0.2,0,0.2c-0.2,1.3-0.3,2.5-0.5,3.8c-0.4,2.9-0.8,6-1.1,9l-0.1,1
			c-0.4,4.6-0.9,9.4-1,14.1c-0.1,7.2,2.7,13.6,8.4,19c1.4,1.3,3.8,1.9,6.5,1.4c1.9-0.3,4.2-1.2,5.9-2.7c0.5-0.5,1-1.1,1.4-1.8
			c4.1-7.7-5-12.3-3.2-18.6c5.5-20.9,11.8-41.9,15.1-63.2c0.1-1,0.3-2.5,0.5-4c0.5-3.1,1.2-6.1,2-9c0.9-3,2.7-5.9,4.5-8.7
			c0.6-0.9,1.1-1.8,1.7-2.7c2.4-4,5.1-8.2,8.6-13.6c4.2-6.4,8.5-12.8,12.5-18.7c0.5-0.7,1-1.4,1.5-2.1c-0.1,1.2-0.1,2.3-0.3,3.4
			c-0.3,3-0.7,6.1-1.1,9.1l-0.4,3c-0.6,4.8-1.3,9.5-1.9,14.3c-0.1,1-0.3,2.1-0.5,3.1c-0.4,2.3-0.9,4.8-0.8,7.2c0.1,2-0.4,3.9-1,5.8
			c-0.4,1.3-0.7,2.6-0.9,4c-0.1,0.7-0.2,1.5-0.4,2.2c-0.7,4.2-1.5,8.6,1.1,13.1c0.1,0.1,0,0.6,0,0.9c0,0.6,0,1.3,0.2,2
			c1.6,4.8,4.3,9.5,8,14c0.4,0.5,1,0.6,1.6,0.4c0.6-0.2,1.1-0.4,1.6-0.7c1.1-0.4,2-0.8,3-1.1c2.9-1,5.2-4,5.2-7.2c0-0.3,0-0.7,0-1
			c0-0.6,0-1.1,0-1.6c0.1-1.5,0.4-2,0.6-2.1c0.3-0.2,1.1-0.3,2.5-0.1c1.6,0.2,3.1,0.2,4.6,0.2c0.8,0,1.6,0,2.4,0c1,0,2,0.1,3.3,0.2
			c-0.3,0.4-0.7,0.9-1,1.3c-1.6,2.1-3.2,4.2-4.8,6.1c-3.6,4.2-7.3,8.2-10.8,11.9c-0.7,0.7-1.5,1.4-2.3,2.1c-0.7,0.6-1.4,1.1-2,1.8
			c-1.5,1.5-3.1,3-4.6,4.5c-1.9,1.9-3.9,3.9-5.9,5.8c-1.9,1.8-4,3.7-6.9,6c-2,1.6-4.2,3.3-7.1,5.4c-0.3,0.2-0.6,0.4-1,0.5
			c-0.5,0.2-1.2,0.5-1.7,1c-2.2,1.8-2.6,4.4-3,6.6c0,0.3-0.1,0.6-0.1,0.8c-0.4,2.3,0.6,4.8,2.6,6.3c2,1.5,4.5,1.8,6.6,0.8
			c2.5-1.2,4.9-2.8,7.2-4.2c1-0.6,2-1.2,2.9-1.8c0.1,0,0.1-0.1,0.3-0.2c4.6-1.5,7.2-5,9.8-8.4c1-1.3,1.9-2.6,3-3.7
			c1.4-1.6,3.2-2.9,5.3-4.4c0.5-0.3,0.7-0.4,0.8-0.3c0.1,0,0.4,0.3,0.7,1.2c0.1,0.2,0.2,0.5,0.3,0.7c0.1,0.1,0.2,0.3,0.2,0.4
			c0,3.1,1.4,5.5,2.8,7.8c0.8,1.3,1.6,2.5,2,3.9c0.1,0.4,0.3,0.8,0.4,1.2c0.4,1,0.9,2.3,0.7,2.9c-1.5,4.5,0.7,7.8,2.5,9.9
			c5.5,6.5,11.8,9.9,19.1,10.3c0.1,0,0.5,0.3,0.7,0.4c0.2,0.2,0.5,0.3,0.8,0.5c0.2,0.1,0.4,0.2,0.6,0.2h2.7c0.1,0,0.2,0,0.2,0
			c0.4-0.1,0.7-0.1,1.1-0.2c0.7-0.1,1.4-0.3,2-0.3c3.5-0.1,7.2-0.3,11.1-1.6c9.6-3.2,19-8.1,29.6-15.4c1.4-1,2.8-2.1,4.2-3.1
			c2-1.5,4-3.1,6.2-4.3c0.9-0.5,1.5-1.3,2-2c0.2-0.3,0.4-0.5,0.6-0.8c0.2-0.3,0.4-0.6,0.4-0.9v-3.3
			C1065.3,231.7,1064.9,231.2,1064.2,231z M979,163.8c-0.3-0.2-0.6-0.3-0.9-0.3c-0.1,0-0.2,0-0.3,0c-0.7,0.2-1.2,0.3-1.7,0.4
			c0-0.5-0.1-0.9,0-1.3c0.1-1,0.2-2,0.3-3c0.2-1.6,0.3-3.2,0.3-4.8c0-0.5,0.1-0.8,0.2-0.9c0,0,0.2-0.2,0.9-0.1
			c1.3,0,2.6,0.1,3.8,0.2c1.6,0.1,3.2,0.2,4.8,0.2c1.2,0,2.5-0.4,3.5-0.8c0.9-0.3,1.7-0.7,2.5-1.1c0.7-0.3,1.4-0.7,2.1-0.9
			c3.4-1.3,6.9-3.4,7-8.7c0-0.6-0.3-1.1-0.8-1.3c-8-3.4-14.6,0.3-18.9,3.3c-1.1,0.8-2.3,1.4-3.6,2.1c-0.1,0.1-0.3,0.1-0.4,0.2
			c-0.7-3.1,0-5.7,0.7-8.5c0.6-2.4,0.9-4.9,1.2-7.2c0.1-0.5,0.1-1.1,0.2-1.6c0.2-1.2,0.7-1.8,2.3-2.3c0.7-0.2,1.4-0.4,2.1-0.6
			c2.4-0.6,5.1-1.3,7.2-3.5c0.3,0,0.9,0.1,1.5,0.4c2.4,0.8,9.3-0.6,11.1-2.8c0.3-0.4,0.6-0.8,0.7-1.2c0,1.8,0.1,3.7,0.1,5.5
			c0,1.1-0.1,2.2-0.2,3.4c-0.1,0.6-0.1,1.1-0.1,1.7c-0.1,1.4-0.2,2.9-0.3,4.3c-0.3,3.4-0.6,7-0.7,10.5c-0.1,2.2-0.1,4.4-0.1,6.5
			c0,1.1,0,2.3,0,3.4c0,2.4-3.1,3.6-4,3.9c-2.9,1-5.6,2.6-8.2,4.1l-1.5,0.9c-3.4,2-6.7,3.9-10.6,4.7l0.4-3.8
			C979.5,164.5,979.3,164.1,979,163.8z M989.1,107.2c1.3-1.1,2.3-2.1,3.9-2.1c0,0,0.1,0,0.1,0c1.1,0,1.7-1.1,1.8-1.3
			c1.3-2.5,3.6-3.3,6.3-4.3c0.3-0.1,0.6-0.2,0.9-0.3c1.5,1.5,2.7,4.6,2.3,6.6c-0.2,1.4-0.2,2.8-0.2,4.2l0,0.7c0,1.9,0.1,3.8,0.1,5.7
			c0,0.2,0,0.4,0,0.6c-0.4-0.9-1.3-1.5-2.4-1.7c-2.6-0.5-5.3-0.9-8-1.2c-2.4-0.2-4.4,0.8-5.2,2.4c-0.5,0.1-1,0.1-1.5,0.2
			c-1.7,0.2-3.3,0.5-4.9,0.7c-0.6,0.1-0.9,0.1-1,0.1c0-0.1,0-0.3,0.1-0.6c0.9-3.7,2.6-6.2,5.3-7.9
			C987.7,108.5,988.5,107.8,989.1,107.2z"/>
		<path class="st5" d="M888.4,121c0.1,0,0.1,0,0.2,0c2.1-0.3,4.2-0.6,6.1-1.6c7.7-4,15.9-5.9,23.8-7.6c0,0,0,0,0,0
			c4.9-1.1,9.7-2.9,14.4-4.6l1.8-0.7c1.4-0.5,2.5-1.7,3.1-3.5c0.7-1.9,0.6-4.1-0.2-5.6c-0.2-0.3-0.4-0.6-0.5-0.9
			c-1.6-2.8-3.2-5.7-6.6-7.2c-0.6-0.3-1.2-0.6-1.9-1c-1.8-1-3.7-2-5.7-1.8c-2,0.2-2.4-0.1-3-1.1c-0.2-0.4-0.7-0.7-1.2-0.7h-1.1
			c-0.3,0-0.5,0.1-0.7,0.2c-0.3,0.2-0.6,0.4-0.9,0.7c-0.4,0.3-0.8,0.7-1.1,0.7c-2.3,0.4-4.2,0.9-5,2.3c-0.6,0.9-0.5,2-0.3,3.1
			c-0.5,0.5-0.8,1.3-0.7,2c0,0.5,0.1,0.9,0.3,1.2c-3.7,6.1-8.8,11-13.8,15.8c-2.7,2.6-5.5,5.2-8,8c-0.4,0.4-0.5,1-0.2,1.5
			C887.4,120.7,887.9,121,888.4,121z"/>
	</g>
</g>
<g>
	<linearGradient id="SVGID_1_" gradientUnits="userSpaceOnUse" x1="53.9765" y1="88.7562" x2="212.4598" y2="215.7638">
		<stop  offset="0" style="stop-color:#F7F8F8"/>
		<stop  offset="1" style="stop-color:#191919"/>
	</linearGradient>
	<path class="st6" d="M260.3,177.3c-0.8,14.8-5,27.9-11.9,40.2c-10.7,19.3-26.1,33.7-45.3,44.3c-3.6,2-6.4,1.9-9.6-0.4
		c-30.7-21.6-47.9-50.7-49.4-88.6c-0.5-13,0.1-25.8,4.6-38.1c0.6-1.7,0.7-4.7,3.1-4.4c2.5,0.3,1.8,3.1,1.8,4.9
		c-0.6,13.5,2.1,26.5,6.7,39.1c10,27.1,36.3,42.4,62.7,36.1c16.1-3.8,26.8-13.9,33.4-28.8C257.1,180.2,256.9,178.2,260.3,177.3z
		 M93.6,274.6c19.2-0.9,34.6-18.1,33.9-37.9c-0.7-18.4-17.2-33.6-35.6-32.9c-19.4,0.8-35.4,17.2-34.6,35.6
		C58,260,74.1,275.5,93.6,274.6z M212.1,50.5c-3.2-2.6-5.7-1.9-8-1.9c-37.2-0.1-74.3-0.1-111.5-0.1c-2.6,0-5.2,0-7.9,0.2
		c-2.4,0.2-3.4,1.7-3.5,4c-0.1,2.4,0.4,4.5,3.1,5c1.9,0.3,3.9,0.4,5.9,0.4c14.6,0,29.3,0,43.9,0c8.5,0,8.7,0.1,8.7,8.9
		c0,16.4,0,32.8,0,49.2c0,2.3-0.8,4.8,2.1,8C159.1,91.9,178.9,65.2,212.1,50.5z M240.4,150.6c4.9,11.8,1.9,26.2-7.7,34.9
		c-10.2,9.1-21.9,11.5-34.6,6c-12.1-5.3-18.5-14.8-19.2-28c-0.1-1.5,0.9-4-2.2-3.2c-3.8,1-7.6,8.2-6.7,12.1
		c4.5,17.9,23.8,32.3,42,31.5c18.2-0.9,34.7-13.5,38.6-29.4c4.8-19.7-2.4-37-19.4-47.1c-21.2-12.6-52-1.1-59.5,22.1
		c-0.5,1.4-1.5,3.2,0,4.2c2,1.4,3.1-0.7,4.3-1.8c3.5-3.3,6.8-6.8,10.3-10.1c6.8-6.3,14.4-10.6,23.5-10.1
		C224.5,131.4,235.4,138.4,240.4,150.6z M141.5,209.4c0,7.1,0.3,14.2-0.1,21.3c-1,18.8-8.7,34-25,44.3c-1.4,0.9-4,1.2-3.4,3.3
		c0.6,2.4,3.3,1.6,5.1,1.7c22,0.9,43.6-2.1,64.6-8.7c1.9-0.6,4.9-0.3,5.2-3.1c0.3-2.3-2.3-2.9-3.8-4.1c-13.1-9.9-24-21.6-31.5-36.3
		c-3.1-6.2-5.9-12.5-8.8-18.8C143,209.2,142.2,209.3,141.5,209.4z M210,186.7c14.1,0.1,25.1-10.4,25.2-23.9
		c0-13.4-11.9-25-25.4-24.7c-12.9,0.2-23.6,11.1-23.6,24.1C186.2,175.9,196.7,186.6,210,186.7z"/>
	
		<linearGradient id="SVGID_00000124866754349632853950000011372227561154939008_" gradientUnits="userSpaceOnUse" x1="166.8351" y1="132.5574" x2="414.3964" y2="185.1511">
		<stop  offset="0" style="stop-color:#F5F5F5"/>
		<stop  offset="1" style="stop-color:#CDAA39"/>
	</linearGradient>
	<path style="fill:url(#SVGID_00000124866754349632853950000011372227561154939008_);" d="M355.2,58c-4.8,0-9.5,0-14.2,0
		c-2.2,0-4.4,0-6.6-0.1c-3-0.2-5-1.6-4.9-4.9c0.1-3.5,2.4-4.3,5.3-4.3c18.1,0,36.3,0,54.4,0c2.9,0,5.2,0.7,5.2,4.3
		c0,3.7-2.1,5-5.4,5c-2.8,0-5.8,0.6-8.5-0.2c-7.6-2.1-12.6,0.8-17.5,6.6c-16.7,19.9-33.9,39.4-50.9,59.1c-2.4,2.8-2.8,5.2-0.8,8.7
		c23,38.6,45.8,77.4,68.7,116.1c3.2,5.4,6.8,10.7,9.6,16.3c2.5,4.9,6.1,6.4,11.2,5.9c2.6-0.2,5.2,0,7.9,0.1c2.8,0.2,4.5,1.7,4.4,4.6
		c0,2.9-1.8,4.3-4.6,4.5c-1.3,0.1-2.6,0.1-3.9,0.1c-28.4,0-56.8,0-85.2,0c-1.1,0-2.2,0-3.3,0c-3-0.1-5.1-1.1-5.2-4.6
		c0-3.4,1.9-4.7,5-4.7c3.9-0.1,7.9-0.1,11.8-0.1c4.4,0,5.6-1.4,3.2-5.5c-13-22.2-26-44.6-38.9-66.8c-6.8-11.7-13.6-23.4-20.5-35.1
		c-1.9-3.1-1.8-5.4,0.7-8.1c11.4-12.9,22.6-26,33.9-38.9c16.2-18.6,32.5-37.1,48.7-55.7C355,60,354.9,59.5,355.2,58z M265.3,154.8
		c0.1-29.5,0.3-59.1,0-88.6c-0.1-6.3,1-9.5,8.2-8.3c3.8,0.6,7.9,0.1,11.8,0.1c3.4-0.1,6.2-0.9,6.1-5.1c-0.1-4-3.1-4.2-6.1-4.2
		c-9.6,0-19.2,0-28.9,0c-33.3,0-60.3,13.1-80.6,39.3c-11.5,14.8-18,31.4-14.9,50.6c0.3,2.1-0.9,5.6,2.4,6c2.4,0.3,2.9-2.9,3.9-4.7
		c11.5-20.3,32.7-30.3,55-25c19.5,4.7,31.9,17.2,37.4,36.6c1.1,3.9,1.2,8.1,4.2,12.2C265.8,160,265.3,157.4,265.3,154.8z
		 M254.4,221.4c-10.2,19.2-25.3,33.7-43.9,44.8c-1.3,0.8-3.2,1.2-3.2,3c0,2.3,2.2,2.4,3.8,3c24.1,9.3,49.3,7.8,74.4,7.5
		c2.8,0,4.4-1.8,4.4-4.6c0-3-1.7-4.3-4.5-4.4c-3.9-0.1-7.9-0.4-11.8,0c-6.2,0.6-8.5-1.6-8.4-8.1c0.4-18.1,0.2-36.2,0.1-54.4
		c0-2.3,0.8-4.8-1.9-7.4C260.4,208,257.9,214.9,254.4,221.4z"/>
</g>
</svg>
