<?xml version="1.0" encoding="utf-8"?>
<!-- Generator: Adobe Illustrator 27.0.0, SVG Export Plug-In . SVG Version: 6.00 Build 0)  -->
<svg version="1.1" id="圖層_1" xmlns="http://www.w3.org/2000/svg" xmlns:xlink="http://www.w3.org/1999/xlink" x="0px" y="0px"
	 viewBox="0 0 283.5 283.5" style="enable-background:new 0 0 283.5 283.5;" xml:space="preserve">
<style type="text/css">
	.st0{fill:#171818;}
	.st1{fill:#171818;stroke:#171818;stroke-width:3;stroke-miterlimit:10;}
	.st2{fill:url(#SVGID_1_);}
	.st3{fill:url(#SVGID_00000157308784528796161850000010593949245851374489_);}
</style>
<g>
	<path class="st0" d="M-1248.2-3967.9c0.7,0,1.2,0.1,1.3,0.3c0.1,0.2,0.2,0.6,0.2,1.2v10.1c0,0.8-0.1,1.3-0.3,1.5
		c-0.2,0.1-0.6,0.2-1.3,0.2l-12.8-0.3v25l10.1-0.3c0.7,0,1.2,0.1,1.3,0.3c0.1,0.2,0.2,0.6,0.2,1.3v10.1c0,0.8-0.1,1.2-0.3,1.4
		c-0.2,0.1-0.6,0.2-1.3,0.2c0,0-1.1,0-3-0.1c-2.1,0-4.5-0.1-7-0.1v23.8c4-1.7,8.5-3.8,13.4-6.3c-0.2,1.9-0.3,3.8-0.3,5.7
		c0,1.3,0,2.5,0.1,3.6l0.1,1.5c11.8-3.1,21.9-7.3,30.4-12.7c6.9-4.3,13.6-9.9,20-16.7c1.6-1.7,2.9-3.5,3.8-5.4
		c4.7,3.1,8.1,5.7,10.1,7.8c0.9,0.8,1.4,1.5,1.4,2.1c0,0.7-0.6,1.3-1.7,1.8c-1.8,0.9-3.3,2-4.4,3.3c-12.6,13.2-28.3,23.1-47.2,29.8
		c-1.9,0.6-3.1,0.9-3.4,0.9c-0.8,0-1.9-1.1-3.2-3.2c-0.9-1.2-2.9-3.7-6-7.4c0,1.3-0.2,2.1-0.6,2.6c-0.4,0.5-1.4,1.2-3.1,2.1
		c-7.9,4-17.5,8-28.7,12c-2.3,0.9-3.8,1.5-4.3,2c-1,0.7-1.8,1.1-2.3,1.1c-0.7,0-1.3-0.6-1.7-1.8c-1.4-4.9-2.5-9.4-3.2-13.4
		c3.7-0.4,8-1.5,12.8-3l3.9-1.3v-28.7l-11.6,0.3c-0.9,0-1.4-0.5-1.4-1.6v-10.1c0-1,0.5-1.6,1.4-1.6l11.6,0.3v-25l-12.6,0.3
		c-0.6,0-1-0.1-1.1-0.3c-0.1-0.2-0.2-0.6-0.2-1.3v-10.1c0-1,0.4-1.5,1.3-1.5l12.9,0.3h13.7L-1248.2-3967.9z M-1255.1-3862.3
		c29.3-4.9,51.9-15.2,67.6-31c5.1-5.1,8.3-9.1,9.8-12c4.1,2.7,7.8,5.6,11.2,8.7c0.9,0.8,1.3,1.6,1.3,2.4c0,0.6-0.6,1.3-1.7,1.9
		c-2,1-4,2.5-5.9,4.5c-9.9,9.9-20.3,17.8-31.2,23.5c-11.1,5.9-23.9,10.4-38.5,13.4c-1.4,0.3-2.4,0.4-3,0.4c-0.9,0-2-1.1-3.2-3.3
		C-1250.4-3857.2-1252.5-3860-1255.1-3862.3z M-1253.6-3937.1c15-8.8,25.9-19.4,32.7-31.8c1.6-3.1,2.7-6,3.3-8.7
		c6,1.2,10.7,2.2,14.1,3.2c1.4,0.5,2.1,1.1,2.1,2c0,0.8-0.5,1.5-1.5,2.2c11.3,14.8,25.4,26,42.2,33.7c-2.3,2.9-4.2,6.6-5.7,11.1
		c-0.8,2.4-1.6,3.6-2.4,3.6c-0.5,0-1.6-0.5-3.3-1.6c-14.6-8.7-27.4-20.7-38.4-35.9c-8.5,12.9-18.5,23.3-30,31.2
		c-1.8,1.2-2.9,1.8-3.4,1.8c-0.6,0-1.6-1-2.9-3C-1248.6-3932.5-1251-3935.1-1253.6-3937.1z M-1247.9-3913.6
		c13.6-4.6,25-11.7,34.1-21.3c1.4-1.4,2.8-3.5,4.3-6.1c3.9,2.5,7.1,5,9.8,7.5c0.9,0.9,1.4,1.6,1.4,2.2c0,0.5-0.6,1.1-1.7,1.6
		c-1.1,0.5-2.6,1.6-4.4,3.6c-9.7,9.4-19.8,16.6-30.3,21.5c-1.6,0.7-2.7,1.1-3.2,1.1c-0.7,0-1.8-1-3.2-3
		C-1242.9-3909.1-1245.1-3911.5-1247.9-3913.6z"/>
	<path class="st0" d="M-1036.1-3885.5c1.4,1.6,4,3.4,7.8,5.3c1.6,0.9,2.6,1.5,3,1.8c0.4,0.5,0.7,1,0.7,1.8c0,0.5-0.1,1.4-0.3,2.8
		c-2.2,14.4-7.4,21.5-15.7,21.5c-9.3,0-17.8-7.2-25.6-21.7c-7.7,8.5-16.1,15.3-25,20.5c-1.8,1-2.9,1.6-3.3,1.6c-0.7,0-1.6-1-2.9-2.9
		c-1.9-2.7-4.3-5.2-7.1-7.3c12.1-6.3,22.7-15,32.1-26c-5.5-14-8.8-31.7-10.1-52.9h-42.6v17.7h19.9l11.7-0.3c1.1,0,1.7,0.6,1.7,1.8
		c-0.1,1.3-0.2,4.2-0.3,8.5c-0.1,3-0.2,5.2-0.3,6.7c-0.8,12.9-1.8,21.4-3.2,25.7c-2.7,7.6-8,11.5-16.1,11.5c-3.1,0-5.4-0.1-7.1-0.3
		c-1.7-0.1-2.7-0.4-3-0.9c-0.3-0.4-0.6-1.7-0.9-3.7c-0.7-4.2-1.8-7.5-3.3-9.9c4.5,0.7,8.2,1.1,11.3,1.1c3.5,0,5.7-1.7,6.6-5
		c0.9-3,1.6-10.4,2.1-22.2h-19.4c-0.4,9.1-1.2,17.2-2.5,24.2c-2.2,12.3-5.8,23.1-10.8,32.3c-0.9,1.8-1.7,2.6-2.3,2.6
		c-0.7,0-1.6-0.7-2.8-2.2c-3-3.4-5.8-6-8.6-7.8c5.1-7.5,8.7-17.7,10.7-30.6c1.3-8.9,2-20,2-33.4l-0.3-27.7c0-0.8,0.1-1.3,0.3-1.5
		c0.2-0.1,0.6-0.2,1.3-0.2l18.5,0.3h36.8v-2.9c-0.1-8.6-0.5-15.1-1.1-19.5c7.9,0.4,12.8,0.7,14.9,1c1.4,0.1,2.1,0.7,2.1,1.6
		c0,0.6-0.2,1.5-0.7,2.6c-0.5,1.4-0.7,4.6-0.7,9.6c0,1.5,0,2.9,0.1,4.3v3.3h20.7l18.4-0.3c0.7,0,1.2,0.1,1.3,0.3
		c0.1,0.2,0.2,0.6,0.2,1.3v10.6c0,0.7-0.1,1.1-0.3,1.3c-0.2,0.1-0.6,0.2-1.3,0.2l-18.4-0.3h-20.3c0.6,14.7,2.5,27.7,5.7,39.1
		c3.3-5.4,6.1-10.8,8.3-16.2c1.8-4.9,3.1-9.1,3.7-12.7c4.5,1.3,8.8,2.9,12.8,4.9c1.4,0.7,2.1,1.4,2.1,2.2c0,0.5-0.7,1.4-2,2.9
		c-0.8,0.8-2,3.1-3.4,6.8c-4.5,10.3-9.7,19.6-15.7,28c2.6,5.5,5.4,9.9,8.5,13.2c2.5,2.7,4.6,4,6.3,4c1.7,0,3-1.4,3.9-4.3
		C-1037-3875.4-1036.5-3879.7-1036.1-3885.5z M-1048.9-3975.3c4.8,3.6,8.7,7.5,11.9,11.6c0.4,0.5,0.5,0.9,0.5,1.2
		c0,0.5-0.4,0.9-1.2,1.4l-6.7,5c-0.9,0.6-1.5,0.9-1.8,0.9c-0.3,0-0.7-0.3-1.1-0.9c-2.7-4.2-6.5-8.3-11.2-12.1
		c-0.5-0.5-0.8-1-0.8-1.3c0-0.2,0.4-0.6,1.1-1.2l6.3-4.5c0.7-0.5,1.3-0.7,1.6-0.7C-1049.8-3975.9-1049.4-3975.7-1048.9-3975.3z"/>
	<path class="st0" d="M-960.3-3904.8c-2.3,2-4.7,5.3-7.2,10.1c-0.8,1.2-1.4,1.8-2,1.8c-0.5,0-1.2-0.6-2.2-1.7c-3.7-4-6.7-7.7-9-11.3
		v33.7l0.3,20.4c0,0.7-0.1,1.2-0.3,1.3c-0.2,0.1-0.6,0.2-1.3,0.2h-10.9c-0.8,0-1.3-0.1-1.5-0.3c-0.1-0.2-0.2-0.6-0.2-1.3l0.3-20.4
		v-28.3c-3.6,3.9-7.6,7.8-12,11.7c-1.4,1.3-2.5,2-3,2c-0.6,0-1.1-0.7-1.6-2.2c-1.3-4.6-2.9-8.4-4.8-11.2
		c15.2-10,26.7-23.8,34.4-41.4h-14.5l-14.2,0.3c-0.8,0-1.2-0.1-1.3-0.3c-0.1-0.2-0.2-0.6-0.2-1.2v-10.3c0-0.7,0.1-1.2,0.3-1.3
		c0.2-0.1,0.6-0.2,1.3-0.2l14.2,0.3h1.5v-5.7c0-7.2-0.5-12.8-1.3-16.9c5.1,0.1,10.1,0.5,14.9,1.2c1.5,0.2,2.2,0.7,2.2,1.4
		c0,0.6-0.3,1.6-0.8,2.9c-0.9,1.6-1.3,5.2-1.3,10.7v6.3h3.8c1.1,0,2-0.2,2.6-0.6c0.9-0.5,1.4-0.8,1.7-0.8c1,0,3,1.3,5.8,3.8
		c2.5,2.4,3.7,4,3.7,4.7c0,1.2-0.6,2.2-1.7,3c-1.2,1-2.3,2.7-3.3,5.1c-2.7,6.5-6.1,12.6-9.9,18.2
		C-973.4-3914.7-967.5-3909.4-960.3-3904.8z M-898-3883.1c2.5,2,5.5,3.4,8.8,4.3c1.4,0.4,2.3,0.8,2.7,1.2c0.4,0.5,0.5,1.1,0.5,2.1
		c0,0.5,0,1-0.1,1.6c-0.7,8.8-2.6,14.6-5.7,17.5c-3.2,2.7-8.1,4.1-14.8,4.1c-7.6,0-12.6-0.7-14.9-2c-2.8-1.5-4.2-4.7-4.2-9.4v-31.4
		h-6.3c-0.9,12.8-4.7,22.8-11.5,29.9c-4.5,4.7-11.2,9-20.4,12.8c-1.8,0.6-2.9,0.9-3.3,0.9c-0.7,0-1.7-1-3-2.9c-2-3.5-4.3-6.1-7-7.8
		c10.7-2.7,18.4-6.6,23.3-11.7c4.9-5.2,7.7-12.3,8.4-21.3c-3.6,0-6.7,0.1-9.6,0.2c-1.9,0-2.9,0.1-2.9,0.1c-0.7,0-1.1-0.1-1.3-0.3
		c-0.1-0.2-0.2-0.6-0.2-1.3l0.3-16.8v-39.7l-0.3-16.8c0-0.8,0.1-1.3,0.3-1.5c0.2-0.1,0.6-0.2,1.2-0.2l17.1,0.3h27.3l17.3-0.3
		c0.7,0,1.1,0.1,1.3,0.3c0.1,0.2,0.2,0.6,0.2,1.4l-0.3,16.8v39.7l0.3,16.8c0,0.7-0.1,1.2-0.2,1.3c-0.2,0.2-0.6,0.2-1.2,0.2
		l-15.7-0.3v24.6c0,2.5,0.5,4,1.5,4.4c0.7,0.2,2.2,0.3,4.6,0.3c2.3,0,4-0.5,5-1.5C-899.1-3868.8-898.2-3874.1-898-3883.1z
		 M-908.9-3958.5h-36.6v9.9h36.6V-3958.5z M-945.5-3927.8h36.6v-9.7h-36.6V-3927.8z M-908.9-3906.7v-9.9h-36.6v9.9H-908.9z"/>
	<path class="st0" d="M-803.1-3900.6c4.5,0.1,8.7,0.4,12.7,0.8c-6.1-5.3-11.2-11.1-15.3-17.4h-14.5c-3.9,6.1-8.4,11.6-13.7,16.6
		c3.3,0.1,7.1,0.4,11.5,0.9c1.8,0.3,2.6,1,2.6,2c0,0.5-0.3,1.3-0.8,2.6c-0.6,1.2-1,3.2-1.1,6.1c-0.7,9.7-3.6,17.7-8.9,24.1
		c-4.7,5.7-11.5,10.3-20.4,14c-1.6,0.7-2.7,1.1-3.3,1.1c-0.7,0-1.7-1.1-3.2-3.3c-2.2-3.2-4.7-5.8-7.5-7.8
		c10.8-3.1,18.4-7.1,22.8-12.2c3.8-4.3,5.9-10,6.4-17c0-1,0.1-2,0.1-3.1c0-2.2-0.1-4-0.4-5.5c-8.1,7.2-17.6,12.9-28.6,17.2
		c-1.5,0.6-2.6,0.9-3.3,0.9c-0.8,0-1.7-1.1-2.9-3.4c-1.6-3.2-3.6-6.2-6.1-8.8c18.1-5.4,31.5-13.5,40.2-24.4h-3l-19.2,0.3
		c-0.9,0-1.3-0.4-1.3-1.4l0.3-13.7v-24.4l-0.3-13.7c0-1,0.4-1.5,1.3-1.5l19.2,0.3h55.7l19.2-0.3c0.8,0,1.2,0.1,1.3,0.3
		c0.1,0.2,0.2,0.6,0.2,1.2l-0.3,13.7v24.4l0.3,13.7c0,0.9-0.5,1.4-1.6,1.4l-19.2-0.3h-5.5c9.8,10.6,23.8,18.4,42.1,23.4
		c-2.3,2.5-4.4,5.7-6.2,9.6c-1,2.4-1.9,3.6-2.6,3.6c-0.4,0-1.4-0.3-3.2-0.9c-9.8-3.8-18.7-8.8-26.8-15.1c-0.1,0.5-0.3,1.1-0.7,2.1
		c-0.4,1.5-0.5,5.7-0.5,12.7v14.1l0.3,16.1c0,0.8-0.1,1.2-0.3,1.4c-0.2,0.1-0.6,0.2-1.3,0.2h-11.9c-0.7,0-1.1-0.1-1.3-0.3
		c-0.1-0.2-0.2-0.6-0.2-1.3l0.3-16.1v-14C-802.1-3889.4-802.5-3895.7-803.1-3900.6z M-846.1-3949.4h26.8v-10.3h-26.8V-3949.4z
		 M-846.1-3928.5h26.8v-10.4h-26.8V-3928.5z M-778-3959.8h-27.5v10.3h27.5V-3959.8z M-778-3928.5v-10.4h-27.5v10.4H-778z"/>
</g>
<text transform="matrix(1 0 0 1 -2300.0701 -3836.9976)" class="st0" style="font-family:'YuGothic-Bold'; font-size:138.2114px;">珍成視界</text>
<g>
	<g>
		<path class="st0" d="M-1479.5-2938.2c-13.1,0-26.3,0-39.3,0c-4.4-0.1-9.3,0.6-12.2-2.8c-2.9-3.6-2.8-10.9-0.7-15
			c1.3-2.5,3.9-3.8,6.6-3.7c3,0,5.8,0,9.4,0c13,0,33.8,0,40.3,0c9-0.7,9.6,10.3,7.7,17c-1.8,4.5-7.5,4.4-11.7,4.4L-1479.5-2938.2z"
			/>
		<g>
			<path class="st0" d="M-1306.6-2763.8c-2.1,2.5-4.4,4.6-6.9,6.5c0,0.2,0.1,0.4,0,0.5c0.1-0.1-2,0.8-2.4,1.1
				c-5.5,3.5-11.8,5.6-18.4,5.6l-84.8,0l-113.3,0c-3.8,0-7.3-1-10.7-2.2c-6.4-2.4-12.6-6.9-16.7-12.4c-4.5-6-7.7-13.3-7.7-21
				l-0.1-59.8l0.1-46.5c0-7.2,2.7-13.9,6.6-19.7c2-3,4.3-5.4,7.1-7.8c6.3-5.4,14.5-8.8,23-8.8l196.1,0c9.7,0,18.5,4.3,25.2,10.8
				c1.2,1.1,1.3,1.1,2.1,2.2c1.1,1.5,2.3,2.9,3.3,4.5l0.9,1.4c1.5,2.4,2.5,4.9,3.3,7.6c1.3,3.9,1.7,7.7,1.7,11.9l0,103.9
				c0,4-1,7.6-2.2,11.3c-0.1,0.2,0.5,0.9,0.1,0.8c-0.2-0.1-0.5,0-0.5,0.3c-0.7,2.1-1.9,3.8-2.8,5.8c-0.2,0.5-0.3,0.7-0.7,1.1
				C-1305.3-2765.9-1305.8-2764.7-1306.6-2763.8z M-1440.2-2770.8c8.9,0.6,17.7,0.1,26.4-1.4c13.7-2.4,25.1-6.5,37.2-13.2l2.3-1.3
				c8.3-4.6,15.9-10.2,23.1-16.4l0.9-0.8c12.9-11.1,22.4-22.1,32.8-35.6c-0.2-0.8-0.8-1.2-1.2-1.8c-2.1-3-4.4-5.7-6.8-8.5
				c-0.9-1.1-1.7-2.2-2.7-3.2c-0.4-0.3-0.5-0.7-0.9-1c-1.6-1.9-3.2-3.8-5-5.6c-0.4-0.4-0.7-0.6-1-1.1c-0.8-1.1-1.8-2-2.7-3
				c-3.4-3.7-7.1-6.9-10.8-10.3l-0.9-0.8c-10.2-9.3-24.7-18.5-37.5-23.9c-17.3-7.3-37.1-11-55.8-9.3c-8.5,0.8-16.6,2.4-24.8,5
				c-5.2,1.7-10.2,3.6-15.1,5.9c-0.1,0.1-0.1,0.4-0.3,0.4c-0.1,0-0.3-0.2-0.5-0.1c-4.1,2-8.1,4-12,6.4c-0.4,0.3-0.8,0.5-1.2,0.7
				c-2.3,1.3-4.5,3-6.7,4.4c-0.1,0.1,0.2,0.6,0,0.5c-0.1,0-0.5-0.3-0.6-0.2c-3.4,2.6-7,5.1-10.1,8c-0.4,0.4-0.7,0.7-1.1,1
				c-3,2.3-5.6,4.9-8.3,7.5c-2.7,2.5-10.4,10.5-12.6,13.3c-0.3,0.3-0.5,0.6-0.8,0.9l-5,5.8l-5.4,6.7c-0.3,0.4-0.5,0.9-0.8,1.2
				c-0.7,0.6-0.4,1.2,0,1.7c2.5,3.3,5,6.5,7.7,9.6l6.7,7.7l5.5,5.9c4.5,4.9,9.3,9.2,14.4,13.5c6.8,5.7,13.9,10.6,21.5,15.1
				c3.9,2.3,7.7,4,11.7,5.9C-1467.9-2775.1-1454-2771.8-1440.2-2770.8z M-1533.9-2896.6c0-2.9-2.3-5.2-5.2-5.2s-5.2,2.3-5.2,5.2
				c0,2.9,2.3,5.2,5.2,5.2S-1533.9-2893.7-1533.9-2896.6z"/>
			<path class="st0" d="M-1409.9-2787.4c-47.2,18.7-95.2-24.1-77.6-72.9c12.8-34.1,55.5-46.6,86-27.9c39.5,24.2,34.6,83.2-8.2,100.8
				L-1409.9-2787.4z M-1390.4-2865.5c-2.1-12.9-19.6-18.1-28.5-8.6c-9.2,9.6-2.1,25.7,10.8,26.6c10,1.1,18.9-8.1,17.7-17.9
				L-1390.4-2865.5z M-1444.2-2860.8c0.8-0.9,1.9-1.5,2.8-2.3c0.2-0.2,0.4-0.4,0.3-0.7c-0.1-0.7-2.3-1.7-3.4-3.2
				c-0.5-0.6-0.9-1.3-1.3-1.8c-0.3-0.4-0.5-0.5-0.9-0.3c-0.6,0.4-1.5,2.4-3,3.4c-0.6,0.5-1.6,1-1.8,1.8c0,1.2,2.1,1.9,3.2,3.5
				c2.2,3.3,1.7,2.9,4-0.3L-1444.2-2860.8z M-1458.4-2840.7c0.3,0,0.6-0.3,1-0.8c0.9-1.3,1.7-3,2.8-4.3c1.5-2.4,5.6-4.4,7-5.6
				c1.2-1.2-0.6-2.2-1.6-2.9c-1.6-1-3.3-2.1-4.5-3.5c-1.9-2-3.1-5-4-5.9c-0.3-0.3-0.7-0.5-1-0.2c-1,0.6-2.1,4-4,6.1
				c-1.2,1.4-2.8,2.5-4.4,3.5c-1.2,0.8-3,1.9-1.4,3.2c1.8,1.4,4.1,2.6,5.6,4.4C-1460.7-2844.4-1460-2841.2-1458.4-2840.7
				L-1458.4-2840.7z M-1414.2-2828.1c-0.9,1.4-1.7,2.9-2.6,4.3c-5.1,7.8-15.9,10.4-24.2,6.4c-2.3-1.1-4.4-2.7-6.1-4.7
				c-2.6-2.9-3.3-7.3-6.9-8.8c-2-0.8-4.4,0.3-5.3,2.4c-2.1,5.7,2.4,12,6.4,15.9c12.4,12,34.5,9.9,44.3-4.5c2.2-3.2,4.5-7.7,2.9-11.4
				c-1.8-3.9-6.5-2.9-8.4,0.4L-1414.2-2828.1z"/>
		</g>
	</g>
</g>
<g>
	<g>
		<path class="st0" d="M-1479.5-3541.6c-13.1,0-26.3,0-39.3,0c-4.4-0.1-9.3,0.6-12.2-2.8c-2.9-3.6-2.8-10.9-0.7-15
			c1.3-2.5,3.9-3.8,6.6-3.7c3,0,5.8,0,9.4,0c13,0,33.8,0,40.3,0c9-0.7,9.6,10.3,7.7,17c-1.8,4.5-7.5,4.4-11.7,4.4L-1479.5-3541.6z"
			/>
		<g>
			<path class="st0" d="M-1306.6-3367.1c-2.1,2.5-4.4,4.6-6.9,6.5c0,0.2,0.1,0.4,0,0.5c0.1-0.1-2,0.8-2.4,1.1
				c-5.5,3.5-11.8,5.6-18.4,5.6l-84.8,0l-113.3,0c-3.8,0-7.3-1-10.7-2.2c-6.4-2.4-12.6-6.9-16.7-12.4c-4.5-6-7.7-13.3-7.7-21
				l-0.1-59.8l0.1-46.5c0-7.2,2.7-13.9,6.6-19.7c2-3,4.3-5.4,7.1-7.8c6.3-5.4,14.5-8.8,23-8.8l196.1,0c9.7,0,18.5,4.3,25.2,10.8
				c1.2,1.1,1.3,1.1,2.1,2.2c1.1,1.5,2.3,2.9,3.3,4.5l0.9,1.4c1.5,2.4,2.5,4.9,3.3,7.6c1.3,3.9,1.7,7.7,1.7,11.9l0,103.9
				c0,4-1,7.6-2.2,11.3c-0.1,0.2,0.5,0.9,0.1,0.8c-0.2-0.1-0.5,0-0.5,0.3c-0.7,2.1-1.9,3.8-2.8,5.8c-0.2,0.5-0.3,0.7-0.7,1.1
				C-1305.3-3369.3-1305.8-3368.1-1306.6-3367.1z M-1440.2-3374.2c8.9,0.6,17.7,0.1,26.4-1.4c13.7-2.4,25.1-6.5,37.2-13.2l2.3-1.3
				c8.3-4.6,15.9-10.2,23.1-16.4l0.9-0.8c12.9-11.1,22.4-22.1,32.8-35.6c-0.2-0.8-0.8-1.2-1.2-1.8c-2.1-3-4.4-5.7-6.8-8.5
				c-0.9-1.1-1.7-2.2-2.7-3.2c-0.4-0.3-0.5-0.7-0.9-1c-1.6-1.9-3.2-3.8-5-5.6c-0.4-0.4-0.7-0.6-1-1.1c-0.8-1.1-1.8-2-2.7-3
				c-3.4-3.7-7.1-6.9-10.8-10.3l-0.9-0.8c-10.2-9.3-24.7-18.5-37.5-23.9c-17.3-7.3-37.1-11-55.8-9.3c-8.5,0.8-16.6,2.4-24.8,5
				c-5.2,1.7-10.2,3.6-15.1,5.9c-0.1,0.1-0.1,0.4-0.3,0.4c-0.1,0-0.3-0.2-0.5-0.1c-4.1,2-8.1,4-12,6.4c-0.4,0.3-0.8,0.5-1.2,0.7
				c-2.3,1.3-4.5,3-6.7,4.4c-0.1,0.1,0.2,0.6,0,0.5c-0.1,0-0.5-0.3-0.6-0.2c-3.4,2.6-7,5.1-10.1,8c-0.4,0.4-0.7,0.7-1.1,1
				c-3,2.3-5.6,4.9-8.3,7.5c-2.7,2.5-10.4,10.5-12.6,13.3c-0.3,0.3-0.5,0.6-0.8,0.9l-5,5.8l-5.4,6.7c-0.3,0.4-0.5,0.9-0.8,1.2
				c-0.7,0.6-0.4,1.2,0,1.7c2.5,3.3,5,6.5,7.7,9.6l6.7,7.7l5.5,5.9c4.5,4.9,9.3,9.2,14.4,13.5c6.8,5.7,13.9,10.6,21.5,15.1
				c3.9,2.3,7.7,4,11.7,5.9C-1467.9-3378.5-1454-3375.2-1440.2-3374.2z M-1533.9-3499.9c0-2.9-2.3-5.2-5.2-5.2s-5.2,2.3-5.2,5.2
				c0,2.9,2.3,5.2,5.2,5.2S-1533.9-3497.1-1533.9-3499.9z"/>
			<path class="st0" d="M-1409.9-3390.8c-47.2,18.7-95.2-24.1-77.6-72.9c12.8-34.1,55.5-46.6,86-27.9c39.5,24.2,34.6,83.2-8.2,100.8
				L-1409.9-3390.8z M-1390.4-3468.8c-2.1-12.9-19.6-18.1-28.5-8.6c-9.2,9.6-2.1,25.7,10.8,26.6c10,1.1,18.9-8.1,17.7-17.9
				L-1390.4-3468.8z M-1444.2-3464.2c0.8-0.9,1.9-1.5,2.8-2.3c0.2-0.2,0.4-0.4,0.3-0.7c-0.1-0.7-2.3-1.7-3.4-3.2
				c-0.5-0.6-0.9-1.3-1.3-1.8c-0.3-0.4-0.5-0.5-0.9-0.3c-0.6,0.4-1.5,2.4-3,3.4c-0.6,0.5-1.6,1-1.8,1.8c0,1.2,2.1,1.9,3.2,3.5
				c2.2,3.3,1.7,2.9,4-0.3L-1444.2-3464.2z M-1458.4-3444.1c0.3,0,0.6-0.3,1-0.8c0.9-1.3,1.7-3,2.8-4.3c1.5-2.4,5.6-4.4,7-5.6
				c1.2-1.2-0.6-2.2-1.6-2.9c-1.6-1-3.3-2.1-4.5-3.5c-1.9-2-3.1-5-4-5.9c-0.3-0.3-0.7-0.5-1-0.2c-1,0.6-2.1,4-4,6.1
				c-1.2,1.4-2.8,2.5-4.4,3.5c-1.2,0.8-3,1.9-1.4,3.2c1.8,1.4,4.1,2.6,5.6,4.4C-1460.7-3447.8-1460-3444.6-1458.4-3444.1
				L-1458.4-3444.1z M-1414.2-3431.5c-0.9,1.4-1.7,2.9-2.6,4.3c-5.1,7.8-15.9,10.4-24.2,6.4c-2.3-1.1-4.4-2.7-6.1-4.7
				c-2.6-2.9-3.3-7.3-6.9-8.8c-2-0.8-4.4,0.3-5.3,2.4c-2.1,5.7,2.4,12,6.4,15.9c12.4,12,34.5,9.9,44.3-4.5c2.2-3.2,4.5-7.7,2.9-11.4
				c-1.8-3.9-6.5-2.9-8.4,0.4L-1414.2-3431.5z"/>
		</g>
	</g>
	<g>
		<path class="st1" d="M-1197.1-3500.8c-3.4,2.2-6.1,3.6-8.1,4.1c-1.3,0.4-2.6,0.8-3.7,1.4c-1.1,0.6-2.3,1.1-3.6,1.4
			c-1.3,0.4-3.3,0.6-6.2,0.7c-1.8,0.4-3.1,0.2-3.9-0.5c-0.8-0.7-1.4-1.8-1.9-3.5c-0.2-1.2-0.2-2,0.3-2.3c0.4-0.4,1.4-0.6,2.8-0.7
			c1.4-0.1,2.5-0.3,3.2-0.5c4.6-0.4,8.2-1,11-2c2.8-1,5.8-2.4,9-4.3c1.6-0.7,3-0.9,4.2-0.5s1.9,1.1,1.9,2.2
			C-1192-3504.5-1193.7-3503-1197.1-3500.8z M-1216.5-3432.6c0-1.4,0.2-2.5,0.6-3.3c0.4-0.8,0.7-1.8,1-3c1.8-7.8,2.3-15.4,1.4-22.7
			l-0.4-2.9c-1.3,0.1-2.6-0.1-4-0.6c-1.3-0.5-2.3-1.3-3.1-2.3c-0.5-1.6,0.6-2.9,3.3-3.9c2.7-1,4.2-1.8,4.4-2.3
			c0.2,0.1,0.5-0.7,0.7-2.6c0.2-1.9,0.5-4.3,0.8-7.3c0.3-3,0.5-4.9,0.6-5.6c0.1-0.4,0.7-0.5,1.8-0.5c1.1,0.1,2,0.3,2.7,0.8
			c0.5,0.5,0.8,1,0.9,1.4c0.1,0.5,0.2,1.7,0.2,3.6c0,1.1-0.1,2-0.2,2.9c-0.1,0.8,0,1.3,0.4,1.4c0.4,0.1,0.6,0.2,0.8,0.3
			c0.2,0.1,0.6-0.1,1.2-0.6c0.6-0.5,1-1,1.4-1.3c0.3-0.3,0.7-0.7,1.4-1.4c0.4-0.5,0.6-0.8,0.8-1c0.2-0.2,0.4-0.4,0.7-0.7
			c0.3-0.3,0.6-0.5,0.8-0.7c0.2-0.2,0.4-0.3,0.5-0.3c0.6-0.1,1.2,0.1,1.8,0.6c0.6,0.5,1,1.2,1.1,1.9c0.4,1.1-0.2,2.7-1.7,4.8
			c-1.5,2.1-3.5,4.1-5.9,5.9c-1.8,1.4-2.9,2.6-3.2,3.4c-0.2,0.5-0.4,2.7-0.5,6.7c-0.1,4-0.2,7.8-0.1,11.4c0.1,3.7,0.2,5.4,0.5,5.3
			c1.2-1.4,2.9-3.6,5.1-6.5c2.2-2.9,4-5.2,5.3-6.8c3-4,4.9-5.8,5.8-5.6c1.2,0.5,0.9,2.2-0.9,5.2c-5.5,11.3-10,19-13.3,23.1
			c-0.5,0.5-1.3,1.5-2.4,3.1c-1.1,1.6-2.2,2.8-3.2,3.7c-1,0.9-2.1,1.4-3.2,1.4C-1215.7-3428.5-1217-3430.2-1216.5-3432.6z
			 M-1167-3498.5c-0.8-0.8-0.8-1.7,0-2.7c1.1-1.1,2.5-3.6,4.4-7.5c1.9-3.9,2.9-6.1,3.2-6.6c1.1-1.7,1.8-3.2,2.3-4.4
			c0.4-1.3,1-2.8,1.9-4.6c0.8-1.4,1.6-3.3,2.2-5.5c0.6-2.2,1.1-3.8,1.4-4.6c1-0.8,2.2-1,3.8-0.4c1.6,0.6,2.3,1.5,2.3,2.7
			c0.1,1-0.4,2.8-1.4,5.5c-1.1,2.7-3.7,8.3-7.7,16.8c-1,2-2.5,4.3-4.5,6.8c-2,2.5-3.6,4.1-4.7,4.7
			C-1165.1-3497.5-1166.1-3497.7-1167-3498.5z M-1139.1-3412.4c0.2-0.6,0.4-0.8,0.4-0.7c0.2-0.6,1-2.3,2.3-5
			c1.3-2.7,2.4-4.9,3.2-6.5c0.8-1.6,1.7-3.6,2.8-6c1.1-2.4,2-4.6,2.7-6.5c0.7-1.9,1.2-3.5,1.4-4.9c0.5-2.3,1.3-5.2,2.5-8.7
			c1.2-3.5,2.1-6.6,2.8-9.1c0.7-2.5,0.9-4.5,0.8-5.9c-0.2-0.5-0.8-0.7-1.6-0.7c-1.9,0.1-2.9-0.1-3.1-0.7c0-0.8,1.2-1.7,3.6-2.5
			c1.2-0.4,2-0.4,2.5-0.2c1,0.1,1.9,0.2,2.7,0.2c1.1,0,1.9,0.3,2.3,0.8c0.5,0.5,0.7,1.4,0.7,2.4s-0.1,2.1-0.4,3.1
			c-0.2,1-0.5,2.1-0.8,3.5c-0.3,1.4-0.5,2.4-0.6,3c-0.2,2.2-1,5.1-2.3,8.8c-1.3,3.7-2,6.1-2.3,7c-1.9,7.2-5.5,16-10.6,26.3
			c-5.2,10.3-10.2,18.9-15.1,25.8c-1.9,3.1-4,4.6-6.2,4.3c-2.2-0.2-4.2-1.9-6-5c-1.3-2.4-1.4-4-0.2-4.9c0.8-0.6,1.9-0.2,3.1,1.1
			c0.7,1,1.3,1.4,1.6,1.4C-1150.1-3394-1145.5-3400.8-1139.1-3412.4z M-1141-3497.5c1-0.7,2-1,3.1-1c0.7,0.1,1.1,0.3,1.3,0.5
			c0.1,0.2,0.2,0.9,0.4,2c0.1,1.6-0.4,3.6-1.6,6.1c-3,6.6-4.1,10.9-3.4,12.8c0.4,1-0.1,2.2-1.3,3.6c-1.1,1.3-2.5,2.5-4.3,3.4
			c-1.8,1-3.1,1.3-4,0.9c-1.2-0.4-1.8-1-1.7-1.9c0.1-0.9,0.7-2.6,1.9-5.1c1-2,2.3-5.3,3.9-9.7c1.6-4.4,2.9-7.6,3.7-9.4
			C-1142.7-3496.1-1142-3496.9-1141-3497.5z M-1120.1-3517.5c-1.2-0.1-5.5,0-12.8,0.1c-1.1,0.1-1.9,0.2-2.3,0.2
			c-6.5,0.1-9.8-0.4-10.1-1.6c-0.2-0.7,0-1.3,0.7-1.8c0.7-0.5,1.6-0.9,2.8-1.2c1.1-0.3,1.9-0.6,2.3-0.8c4-1.8,10.1-2.5,18.4-2.2
			c3.8,0,6.3,0.1,7.3,0.2c1,0.1,1.8,0.4,2.4,0.9c1.3,1,2,2.1,2.1,3.4c0.1,1.3-0.5,2.6-1.7,3.8c-0.6,0.5-2.4,1.6-5.3,3.4
			c-2.9,1.8-4.8,2.9-5.5,3.2c-2.4-0.4-2.9-1.3-1.6-2.7c0.6-0.5,1.5-1,2.7-1.6c1.7-1,2.5-1.8,2.5-2.5
			C-1118.3-3517.2-1118.9-3517.4-1120.1-3517.5z M-1132-3464.6c-0.2,1.6-0.5,2.8-0.9,3.5c-0.4,1.8-1.1,3.3-2.3,4.4
			c-1.1,1.1-2.5,1.7-4.1,1.5c-1-0.4-1.5-1-1.5-1.8c-0.1-0.8,0.2-2.4,0.8-4.7c0.5-1.7,1.6-4.1,3.3-7.1c1.7-3.1,2.8-5.4,3.2-7.1
			c0-0.4,0.5-1.1,1.4-2.3c1.8-2.3,2.2-3.8,1.1-4.5c-0.7-0.5-1.1-0.9-1-1.2c0.1-0.3,0.6-0.7,1.5-1.4c1.3-1.1,2.7-1.2,4.2-0.3
			c1.5,0.9,2.1,2,1.7,3.3c-0.1,0.4-0.2,1.1-0.4,2.3c-0.1,1.2-0.3,2.2-0.5,3.1c-0.2,0.8-0.5,1.4-0.9,1.8c-0.2,0.5-0.8,1.5-1.5,3.2
			c-0.8,1.6-1.5,2.8-2.3,3.5C-1131.1-3467.4-1131.8-3466.2-1132-3464.6z"/>
		<path class="st1" d="M-1062-3439.3c0-1.1,0-1.7-0.1-1.9c-0.1-0.2-0.5-0.2-1.2-0.1c-1.3,0.5-2.7,1.2-4.1,2.2
			c-1.4,1-2.9,2.2-4.4,3.6c-1.6,1.4-2.7,2.4-3.4,2.9c-1.1,0.7-1.8,1.3-2.2,1.6c-0.4,0.4-0.7,0.8-1.1,1.4c-0.4,0.6-0.9,1.3-1.6,2.2
			c-0.7,0.6-1.7,1.8-2.9,3.7c-1.2,1.9-2.3,3.4-3.4,4.7c-1.1,1.3-2.2,1.9-3.4,1.9c-3.1-0.6-3.5-3.2-1.3-7.9c0.7-1.2,2.1-4.7,4.1-10.4
			c2-5.8,3.2-9.1,3.7-10.1c0.7-1.3,2.2-6.5,4.5-15.5c0.5-1.7,1.4-3.5,2.7-5.3c1.3-1.9,2.5-3.1,3.6-3.7c2.8-1.4,4.7-1.6,5.7-0.5
			c1,1.1,0.5,2.8-1.5,5c-2.2,2.4-3.8,6-5,10.9c-1.2,4.9-2.3,8.3-3.2,10.4c-1.6,3.6-1.9,5.4-1.1,5.4c0.5,0,1.5-0.7,3.1-2.2
			c3.1-2.9,6.2-5.1,9.4-6.6c3.1-1.5,5.5-2,7.2-1.5c1.4,0.5,2.4,1.2,2.8,2.1c0.4,0.9,0.6,2.5,0.6,4.8c-0.1,1.6-0.3,3.1-0.6,4.5
			c-0.3,1.4-0.7,3.1-1.3,5c-0.5,1.9-1,3.3-1.4,4.4c-0.5,1.2-1.1,2.6-1.8,4.1c-0.7,1.5-1.2,2.5-1.4,3c-0.2,0.5-0.5,1.1-0.9,1.8
			c-0.4,0.7-0.7,1.3-1.1,1.6c-0.4,0.4-0.8,0.7-1.3,1.1c-0.5,0.4-1.1,0.8-2,1.3c-0.7,0-1.5-0.4-2.4-1.1c-0.9-0.7-1.4-1.4-1.5-2
			c-0.2-1.6,0-3.3,0.7-5.3c0.7-2,1.6-3,2.5-3C-1064.9-3427.2-1063.2-3431.3-1062-3439.3z M-1044.2-3501c-1-2.2-1.5-3.6-1.4-4.3
			c0-0.8,0.1-1.4,0.3-1.6c0.2-0.2,0.7-0.5,1.7-0.7c2.4-0.6,4-0.2,4.7,1.3c1,2.4,1.7,3.7,2.3,3.8c1.1,0.1,4.7-1.6,10.8-5
			c2.6-1.6,4.4-2.3,5.4-2.3c1.8,0.1,2.9,0.7,3.2,1.8c0.4,1.1,0.1,2.2-0.7,3.3c-0.8,1.1-1.9,2-3.1,2.4c-0.4,0.1-1.1,0.5-2.3,1.2
			c-1.1,0.7-2.2,1.3-3.1,1.8c-0.9,0.5-1.9,1.2-2.9,1.9c-1,0.7-1.8,1.4-2.4,2.1c-0.6,0.7-1,1.3-1.1,1.9c1.4,3.7,3.4,8.1,5.8,13.1
			c2.4,5,4.4,8.4,6.1,10.1c1,1.1,1.9,2.4,2.9,4c1,1.6,1.4,2.6,1.4,3.1c0,0.6,0.5,1.4,1.5,2.3c1,1,1.8,1.4,2.4,1.4
			c0.7,0,1.4-1.9,2-5.8c0.5-3.7,2.6-9.1,6.5-16.2c0-0.4,0.5-1,1.5-1.8c1-0.8,1.8-1.3,2.3-1.3c0.7,0,1.7,0.6,3,1.7
			c1.3,1.1,1.9,2,1.9,2.6c0,0.6-0.5,1.2-1.6,1.8c-1.4,0.8-2.8,2.8-4.1,5.8c-1.3,3-2.3,6.5-3,10.4c0,0.7-0.6,2.6-1.8,5.5
			c-1.2,2.9-1.4,5-0.7,6c1.1,2.6,3.4,6.2,6.9,10.8c3.5,4.6,5.6,7.3,6,8.1c1.2,1.8,2.5,3.2,4.1,4.1c1.5,0.9,2.8,1.2,3.9,0.8
			c1-0.4,1.8-0.4,2.4,0c0.7,0.4,1.4,1.3,2.1,2.7c0.5,1.3,1.4,2.6,2.8,3.8c1.4,1.2,2.3,2.2,2.6,3.1c0,0.6-0.5,1.6-1.5,2.9
			c-1,1.3-1.8,2-2.4,2.2c-0.4,0.6-1.5,0.2-3.3-1.3c-1.9-1.4-3.8-3.1-5.9-4.9c-2-1.8-3.3-2.8-3.8-3.1c-1.6-1-3.6-3.1-6.1-6.5
			c-4.7-6.2-7.4-9.9-8.3-10.9c-0.8-1-1.6-1.4-2.2-1c-0.7,0.4-2,3.4-3.8,9.2c-1,2.8-2.4,6.6-4.2,11.5c-1.9,4.9-3.2,8.5-3.9,10.6
			c0,0.5-0.9,1.6-2.6,3.3c-1.7,1.7-2.9,2.6-3.5,2.6c-0.4-0.1-0.8-0.3-1.4-0.5c-1-0.4-1.5-0.8-1.6-1.4c-0.1-0.5-0.1-2.4,0.2-5.5
			c0-0.1,0-0.2,0-0.4c0.1-1.8,0.3-3.4,0.5-4.9c0.2-1.4,0.3-2.5,0.4-3.1c0.1-0.6,0.3-1.7,0.8-3.4c0.5-1.7,0.8-2.9,0.9-3.6
			c0.5-2.2,0.9-3.6,1.4-4.2c0.4-0.7,0.9-0.9,1.4-0.6c0.4-0.1,0.6,0.2,0.7,0.9c0,0.4,0.1,1.1,0.2,2.3c0,1.9,0.1,2.9,0.4,2.9
			c1,0,2-1.9,3.2-5.8c0.1-0.6,1-3.4,2.5-8.3c1.6-4.9,2.5-7.8,2.7-8.6c0.4-1.6,0.1-3.2-0.8-4.9c-0.9-1.7-2.1-3.5-3.7-5.4
			c-1.6-1.9-2.5-3.4-2.9-4.3c-1.4-2.6-3.3-5.7-5.6-9.3c-2.3-3.5-4.4-7.2-6.5-11.1c-0.5-0.8-1.1-2-1.7-3.5c-0.7-1.5-1.1-2.4-1.4-2.8
			c-0.2-0.4-0.7-0.7-1.4-1.2c-0.7-0.4-1.4-0.4-2.3,0.1c-0.9,0.5-2.1,1.3-3.5,2.3c-1.1,0.8-2,1.5-2.9,2.1c-0.8,0.5-1.5,0.9-2.1,1.1
			c-0.5,0.2-1.4,0.5-2.6,1c-1.2,0.5-2.3,1-3.4,1.4c-11.8,5-19.7,8.2-23.7,9.5c-4,1.3-6.5,1.3-7.5,0.1c-0.6-0.6-0.8-1.4-0.7-2.4
			c0.1-1,0.6-1.8,1.4-2.4c2.2-1,6.8-2.7,13.9-5.3c7.1-2.6,11.6-4.4,13.7-5.5c0.8-0.5,2.4-1.1,4.6-2c2.2-0.8,3.6-1.4,4.2-1.8
			c1.1-0.6,2.5-1.7,4.4-3.2c1.9-1.6,2.8-2.6,2.8-3.1C-1042.7-3497.7-1043.2-3498.9-1044.2-3501z M-988.3-3521.7
			c-1.3-1.5-3.4-3.2-6.1-5c-2.8-1.9-4.3-2.9-4.5-3c-0.8-0.5-1.9-1.2-3.2-2.1c-1.3-0.9-2.4-1.7-3.5-2.3c-1.1-0.7-2.1-1.1-3.1-1.4
			c-1.3,0-2.4-0.7-3.3-2c-0.9-1.3-0.8-2.6,0.5-3.8c1.2-1.1,3.3-1.3,6.2-0.5c2.9,0.7,4.8,1.6,5.7,2.7c1.2,1.1,3.1,2.4,5.7,4
			c2.6,1.6,4.7,2.9,6.4,4.1c1.7,1.2,3.2,2.9,4.4,5.2c1.3,2.3,1.8,5,1.5,8.1c-0.2,1.4-0.5,2.3-0.6,2.6c-0.2,0.3-0.6,0.5-1.2,0.6
			c-2.2,0.2-3.2-0.6-3.2-2.5C-986.4-3518.6-987-3520.2-988.3-3521.7z"/>
		<path class="st1" d="M-908.3-3447.8c-2.6-2.2-4.4-3.5-5.2-3.9c-0.2,0-1.6-0.7-4.1-2.3c-2.5-1.5-4.2-2.4-5.3-2.6
			c-0.2,0.2-0.5,1.8-0.6,4.6c-0.2,2.8-0.4,5.8-0.5,8.8c-0.2,3.1-0.3,4.8-0.5,5.1c-1.4,14.8-2.9,24.6-4.3,29.5
			c-0.7,3.5-2.2,5.1-4.5,4.9c-1.2-0.1-1.9-0.9-2-2.3c-0.1-1.4,0-3.1,0.4-5.2c0.4-2.1,0.5-3.5,0.4-4.2c0.2-1.7,1-5.6,2.3-11.6
			c1.3-6.1,1.9-11,1.9-14.7c0.4-2.4,0.6-5.2,0.6-8.3c0.1-3.1,0-5.8-0.3-7.9c-0.2-2.2-0.5-3.2-0.9-3.1c-1,1.7-3.2,6-6.6,13
			c-3.4,7-6,11.8-7.7,14.4c-4.3,8.9-6.2,14.3-5.6,16.4c-0.1,2.3-0.4,3.9-0.8,4.9c-0.4,1-1.2,1.7-2.3,2.2c-1,0.4-1.9,0.3-2.7-0.2
			c-0.6-0.4-1-0.7-1.1-1.2c-0.1-0.4-0.2-1.6-0.2-3.5c0.4-3.2,1-6.5,2.1-9.7c1-3.2,2-5.7,2.9-7.5c0.9-1.7,2.2-4.1,4-7.2
			c1.7-3.1,2.9-5.1,3.3-6c1.7-3.4,3.3-6.8,4.9-10.2c1.6-3.4,3.2-7.2,5-11.4c1.7-4.2,3.2-7.6,4.2-10.3c1.1-2.4,1.3-3.6,0.7-3.6
			c-0.2,0-0.7,0.2-1.3,0.5c-9.2,4-15.4,5.9-18.4,5.9c-1.3,0-2.2-0.2-2.7-0.6c-0.5-0.4-0.7-1.2-0.7-2.4c-0.4-0.7,0-1.7,1.2-3.1
			c1.1-1.3,2.3-2.3,3.6-2.9c1.3-0.6,2.3-0.6,3,0c0.6,0.4,1.9,0.2,4-0.4c1.8-0.5,5-1.9,9.6-4.1c4.6-2.3,7.2-3.7,7.7-4.3
			c0.7-1.1,2.1-2.2,4.1-3.4c2-1.2,3.5-1.1,4.3,0.2c1.4,1.4,1.1,3.6-0.9,6.5c-0.8,1-2.2,2.9-4.1,5.9l-2.7,4.3v5.4
			c0,3.6,0.1,5.6,0.4,6.1c1,1.3,4.7,3.9,11.2,7.8c6.5,3.9,10.3,6.8,11.5,8.6c1,1.4,1.2,2.9,0.8,4.4c-0.4,1.5-1.3,2.3-2.6,2.3
			C-903.9-3444.4-905.7-3445.6-908.3-3447.8z M-927.5-3511.6c2.6,0.5,4.5,1.1,5.7,1.7c0.4,0.4,0.5,1.1,0.5,2.3
			c0,1.2-0.2,2.2-0.7,2.9c-1,1.4-5.6,0.8-13.9-1.8c-2-0.6-3.1-0.8-3.1-0.5c-1.1,0-1.8-0.3-2.1-1c-0.3-0.7-0.3-1.9,0.1-3.7
			c0.5-2.6,1-4.1,1.7-4.3c0.7-0.2,2.5,0.4,5.5,2C-932.2-3512.9-930.1-3512.1-927.5-3511.6z M-839.5-3487.2c0,2.2,0,5.1-0.1,8.8
			c-0.1,3.7-0.1,6.2-0.2,7.5c-0.1,1.3-0.2,3.1-0.3,5.4c-0.1,2.3-0.3,4.1-0.6,5.1c-0.3,1.1-0.7,2.3-1.1,3.8c-0.4,1.4-0.9,2.8-1.5,4
			c-0.8,0.5-1.7,0.8-2.4,0.8c-0.8,0.1-1.5-0.1-2.1-0.5c-0.6-0.4-1.1-0.7-1.6-1.2c-0.5-0.4-1-1-1.4-1.8c-0.5-0.8-0.9-1.4-1.2-1.8
			c-0.3-0.4-0.6-1-1-1.8c-0.4-0.8-0.5-1.2-0.5-1.4c0-1.6,1-1.5,3.1,0.2c0.8,0.7,1.5,1.1,2.1,1.2c0.5,0.1,0.9,0,1-0.2
			c0.1-0.2,0.3-0.7,0.5-1.6c0.2-0.9,0.3-1.5,0.5-1.7c0-1.4,0.1-4,0.4-7.6c0.2-3.6,0.5-6.8,0.6-9.7s0.2-5.9,0.2-9
			c-0.1-3.1-0.3-5.4-0.8-6.8c-4.1-8.4-8.5-11.2-13.3-8.3c-2.6,1.6-5.1,4.2-7.5,7.8c-2.3,3.7-3.4,6.9-3.2,9.8h2.2
			c1.2-0.1,3.3-1,6.2-2.8c2.9-1.7,5.8-3.2,8.6-4.3c2.8-1.1,4.9-1.1,6.5,0.1c0.8,1.1,0.7,2.4-0.4,4c-1.1,1.6-2.2,2.3-3.2,2.3
			c-0.4-0.2-1.5,0.2-3.5,1.2c-2,1-4.1,2.1-6.3,3.3c-2.2,1.2-3.6,1.9-4.2,2.2c-3.4,1.1-5.6,2.1-6.8,3.1c-0.7,0.6-1.1,1.9-1.1,4
			c0,2,0.2,3.1,0.5,3.2c0.8,0.4,3-0.5,6.4-2.6c3.4-2.1,6.4-4.3,8.9-6.6c1.7-1.4,3-2.3,4-2.5c1-0.2,1.9,0.2,2.7,1.3
			c0.6,0.8,0.9,1.5,0.8,1.9c-0.1,0.4-0.5,1.2-1.4,2.4c-0.8,1.2-3.5,3.5-8.1,6.8c-4.6,3.4-7.9,5.6-10.1,6.7c-0.4,0.2-0.8,0.5-1.4,0.7
			c-0.6,0.2-1,0.4-1.1,0.5c-0.1,0.1-0.3,0.3-0.6,0.5c-0.3,0.2-0.5,0.4-0.5,0.5c-0.1,0.2-0.2,0.4-0.4,0.6c-0.2,0.2-0.3,0.6-0.4,1
			c-0.1,0.4-0.1,0.8-0.2,1.2c-0.1,0.4-0.2,1-0.3,1.8c-0.4,3-0.6,4.9-0.7,5.6c-0.1,1.1,0,1.6,0.4,1.6c0.5,0,1.9-0.8,4.3-2.4
			c2.4-1.6,4.6-3.3,6.7-5c2.2-1.8,3.8-2.7,5-2.7c1.1,0,1.8,0.4,2.2,1.1c0.8,1.8,0.1,5.1-2.3,9.9c-1.2,2.3-1.6,3.5-1.1,3.8
			c0.6,0.1,1.5,0.9,2.7,2.3c1.2,1.4,2.1,2.6,2.7,3.5c0.6,1.2,0.9,3.4,0.9,6.6c0,3.2,0.3,5,1,5.6c0.7,0.5,3.5,1.1,8.6,1.7
			c4.1,0.5,11.3,1.7,21.6,3.6c5.4,1.1,8.9,1.6,10.5,1.6c1.6,0,3.2-0.4,4.6-1.3c0.1-0.1,0.4-0.4,0.9-0.7c0.5-0.4,0.8-0.6,0.9-0.8
			c0.1-0.2,0.3-0.5,0.6-0.8c0.3-0.4,0.5-0.7,0.5-1c0.1-0.3,0.1-0.7,0-1.2c-0.1-0.5-0.2-1-0.3-1.6c0-0.5-0.8-2.5-2.5-6.1
			c-1.4-3.4-1.1-5,0.9-5c1.4-0.1,2.9,1.2,4.5,3.9c1.6,2.7,2.5,5.5,3,8.4c0.4,2.9,0.2,5.3-0.6,7.2c-0.5,1.3-1.1,2.4-2,3.3
			c-0.8,0.9-1.9,1.5-3.2,1.9c-1.3,0.4-2.6,0.6-3.7,0.8c-1.1,0.2-2.6,0.2-4.4-0.1c-1.8-0.2-3.3-0.5-4.5-0.6c-1.2-0.2-2.8-0.5-4.9-0.8
			c-2-0.4-3.5-0.6-4.5-0.7c-2.3-0.2-4.6-0.6-6.8-1.1c-2.3-0.5-4.9-0.8-7.9-1.1c-7.8-0.7-13.4-1.6-16.8-2.7c-1.9-0.7-3-1.9-3.2-3.6
			c-0.2-1.7,0.1-4,1-7c0.2-1.2,0.3-2,0.2-2.5c-0.1-0.5-0.5-1.4-1.3-2.9c-0.4-0.7-0.7-1.3-1-1.7c-0.3-0.4-0.6-0.7-0.8-0.9
			c-0.2-0.2-0.5-0.2-0.7,0c-0.2,0.2-0.5,0.4-0.6,0.6c-0.2,0.2-0.5,0.7-0.9,1.4c-0.4,0.7-0.8,1.3-1.2,1.8
			c-3.5,6.2-7.7,12.3-12.7,18.2c-5,5.9-8.3,8.8-10,8.8c-1.6,0-2.5-0.6-2.7-1.9c-0.2-1.3,0.2-2.8,1.4-4.6c0.5-0.5,1.1-1.5,1.9-3.1
			c0.8-1.6,1.6-2.5,2.6-2.9c1.4-0.5,3.4-2.3,5.9-5.4c2.5-3.1,4.8-6.5,6.8-10.3c0.6-1.3,1.4-2.8,2.5-4.5c1.1-1.7,1.8-2.9,2.2-3.6
			c-0.2-0.2-1.8,0.4-4.7,2c-2.9,1.3-4.8,2-5.9,2.1c-1,0.1-1.9-0.6-2.6-1.9c-0.6-0.6-0.6-1.9,0-3.9c0.6-2,0.6-3.2,0-3.7
			c-0.5-1.1-0.5-2.8,0-5.2c0.8-4.3,1.5-11.1,1.9-20.4c0.4-9.3,0.3-16.7-0.3-22.1c-0.5-5-0.7-8.2-0.6-9.5c0.1-1.3,0.5-2.4,1.4-3.5
			c1.7-2,3.1-2.5,4.3-1.3c0.7,0.7,1.1,2.9,1.3,6.5c0,0.1,0,0.3,0,0.5c0,0.2,0,0.4,0,0.5c0,0.1,0,0.3,0,0.5c0,1.2,0,2,0.1,2.4
			c0.1,0.4,0.1,0.8,0.3,1.3c0.1,0.4,0.3,0.5,0.5,0.3c0.2-0.2,0.4-0.5,0.7-0.9c0.3-0.4,0.7-1,1.4-1.8c2.6-4,5.6-7,9-9.2
			c1.1-0.8,1.9-1.3,2.4-1.4c0.5-0.1,1.6-0.1,3.3,0c5.6,0.4,10.1,3.8,13.3,10.3l2.3,4.5V-3487.2z"/>
		<path class="st1" d="M-767.3-3429.2c1.2-0.6,2.3-1.2,3.2-1.8c1-0.6,2.1-1.5,3.5-2.6c1.4-1.1,2.4-2,3.1-2.6
			c0.7-0.6,1.7-1.5,3.1-2.8c1.4-1.3,2.3-2.1,2.6-2.4c-0.2,0.5,1.1-0.7,4.1-3.7c3-2.9,6.8-6.8,11.5-11.4c4.7-4.7,8.6-8.6,11.8-11.8
			c3.2-3.2,6-6.1,8.6-8.7c6.5-6.5,9.6-9.8,9.4-10.1c-0.6,0.1-1.6,0.6-3.1,1.4c-1.4,0.8-2.4,1.4-2.9,1.9c-0.6,0.6-1.8,1.3-3.5,2
			c-1.7,0.7-2.9,1.3-3.5,1.6c-2.3,1.1-3.8,1.7-4.4,1.8c-0.7,0.1-1.5-0.1-2.4-0.7c-1.3-0.6-1.8-1.6-1.4-2.9c0.4-1.3,1.2-2.1,2.4-2.3
			c-0.1,0.2,0.5,0,1.7-0.8c1.3-0.8,2.6-1.8,4-3.1c1.4-1.3,2.1-2.3,2.3-3.2c0.6-1.3,1.3-3.6,2-6.8c0.7-3.2,1-5.1,0.7-5.6
			c-0.4-1.1-1.7-1-4,0.2c-2.5,1.3-4.4,2-5.7,1.9c-1.3-0.1-2.5-0.7-3.7-1.9c-1.6-1.6-2.3-1.3-2.2,0.9c0.1,0.7,0.4,2.4,0.9,5
			c0.5,7.2,0.3,11.5-0.5,13c-0.7,1.3-1.9,1.6-3.6,0.9c-1.3-0.7-2.2-1.9-2.6-3.5c-0.4-1.6-0.8-5.5-1-11.6c-0.2-4.8-0.6-8.7-1-11.8
			c-0.4-3.1-0.8-5.4-1.2-6.9c-0.4-1.6-1.2-4.6-2.5-9.2c-1.1-3-1.4-5-1.1-5.9c0.6-1.4,1.7-2.3,3.2-2.5c1.9-0.4,3.4,1.1,4.5,4.3
			c0.7,2,1.2,3.3,1.4,3.8c0.4,0.7,0.8,1.1,1.4,1.2c0.6,0.1,1-0.1,1.1-0.6c3.7-4.2,13.6-9,29.5-14.4c1.7-0.5,4.1-0.7,7.3-0.5
			c3.2,0.1,5.6,0.4,7.1,0.9c7.4,3.1,10.3,7.7,8.5,13.9c-0.6,1.4-0.9,2.6-0.9,3.6c0,1-0.6,3-1.7,6c-1.1,3.1-2.3,5.6-3.5,7.5
			c-1.2,2.2-1.9,4.1-2,5.9c-0.2,1.3-0.6,2.3-1.1,3.1c-0.5,0.7-2,2.4-4.7,5c-3.5,3.6-5.2,5.5-5.2,5.8c0,0.7-0.7,2.3-2.1,4.8
			c-1.4,2.5-2.6,4.3-3.7,5.5c-6,6.7-8.8,10.3-8.3,10.8c0.2,0.2,2,0.2,5.2-0.2c1.6-0.2,6.5-0.3,14.9-0.1c8.3,0.2,15,0.1,19.9-0.3
			c15.7-1,24.4-0.6,25.9,1.1c0.6,0.7,0.8,1.6,0.6,2.7c-0.2,1.1-0.5,2-1,2.7c-0.8,1-1.7,1.7-2.6,2.1c-0.9,0.4-2.2,0.8-4,1.2
			c-1.7,0.4-3,0.6-3.7,0.7c-1.9,0.6-3.2,0.8-3.9,0.6c-0.7-0.2-1-0.9-1-2.1c0-0.6-0.2-1.1-0.5-1.4c-0.3-0.4-0.8-0.5-1.4-0.5
			c-0.7,0-1.4,0-2.1,0.1c-0.7,0.1-1.7,0.1-3.1,0.2c-1.3,0.1-2.6,0.1-3.8,0.1c-15.7,0-27.6-0.2-35.7-0.5c-0.2,0-1.2-0.3-2.8-0.8
			c-1.6-0.5-3.2-0.9-4.6-1l-3.4-0.4l-2.3,2.7c-1,1-3.6,3.7-7.9,8.2c-4.3,4.5-8.1,8.3-11.3,11.3s-6,5.4-8.3,7.1
			c-1.2,0.8-2.4,1.8-3.5,2.9c-1.1,1.1-2.2,1.9-3.2,2.3c-0.7,0.2-1.5,0.8-2.3,1.8c-0.8,1-1.6,1.6-2.3,2c-3,1.8-6.3,3.5-9.8,5
			c-3.5,1.5-6.2,1.9-7.8,1.2c-1-0.5-1.6-1.1-1.9-1.8c-0.3-0.7-0.2-1.5,0.2-2.4c0.4-0.9,0.9-1.7,1.4-2.4c0.5-0.7,1.1-1.5,1.8-2.3
			c0.7-0.8,1.1-1.4,1.3-1.6c0.5-0.6,1.1-1,1.8-1.1c0.7-0.1,1.2,0.1,1.5,0.5c0.3,0.5,0.2,1.3-0.3,2.5c-0.1,0.5-0.2,0.8-0.1,0.9
			c0.1,0.1,0.4,0.2,1,0.2C-769.7-3428.1-768.5-3428.6-767.3-3429.2z M-730.2-3510.2c0.6,2.2,1.1,3.2,1.4,3.2c0.5-0.1,2.8-1.2,7-3.2
			c4.2-2,6.5-3.2,7-3.4c1.4-0.6,2.3-1.3,2.5-2c0.8-3.4,1.4-6.7,1.8-10.1c0.1-2.4,0.1-3.8,0-4.1c-0.1-0.3-0.7-0.7-1.8-1.2
			c-1,0.2-2.1,0.7-3.3,1.4c-1.3,0.7-2.8,1.7-4.6,3c-1.8,1.3-2.9,2.1-3.2,2.4c-1.9,1.2-3.7,2.8-5.3,4.7c-1.6,1.9-2.4,3.4-2.4,4.5
			C-731.1-3513.9-730.8-3512.4-730.2-3510.2z M-714-3446.6c0.2,1,0.2,3.8,0,8.6c-0.5,8.4-0.5,13.3-0.2,14.8c0.2,0.8,0,1.8-0.6,2.9
			c-0.7,1.1-1.5,1.9-2.6,2.5c-0.4,0.2-0.7,0.4-1,0.4c-0.3,0-0.6,0-0.9,0c-0.3,0-0.6-0.1-0.9-0.5c-0.3-0.3-0.5-0.5-0.6-0.6
			c-0.1-0.1-0.4-0.3-0.7-0.6c-0.4-0.3-0.5-0.5-0.5-0.6c-0.5-1.2-0.7-2.3-0.6-3.3c0.1-1,0.3-2.6,0.8-4.8c0.5-2.2,0.7-3.5,0.7-4
			c0.2-1,0.5-3.5,0.8-7.7c0.3-4.2,0.6-6.7,0.8-7.6c0.4-0.6,1.2-0.9,2.5-0.9C-715.3-3448.1-714.2-3447.6-714-3446.6z M-709.9-3496.2
			c-0.1,0.6-0.2,1-0.1,1.1c0.1,0.1,0.5,0.1,1.4,0c0.5-0.1,3.5-1.9,9-5.2c1-0.6,1.9-1.4,2.7-2.3c0.8-1,1.7-2.2,2.6-3.6
			s1.6-2.6,2.1-3.4c0.5-0.8,1.1-2.2,2-4c0.8-1.8,1.3-2.9,1.4-3.2c0.7-1.1,1.4-2.8,2.2-5c0.7-2.3,1.1-4.2,1.3-5.8
			c0.1-0.7,0.2-1.3,0.3-1.8c0.1-0.5,0-0.9-0.2-1.4c-0.2-0.4-0.3-0.8-0.4-1.1c-0.1-0.3-0.3-0.6-0.6-0.9c-0.4-0.3-0.6-0.5-0.7-0.5
			c-0.1-0.1-0.5-0.3-1-0.6c-0.5-0.4-0.9-0.6-1-0.7c-1.8-0.4-4-0.6-6.7-0.8c-2.6-0.2-4.6,0-5.8,0.5c-0.1,0-0.5,0.2-1.1,0.5
			c-0.6,0.3-1,0.5-1.3,0.7c-0.2,0.2-0.5,0.5-0.9,0.9c-0.4,0.4-0.5,0.8-0.5,1.3c0.1,0.4,0.3,1,0.6,1.7c0.5,0.8,0.6,2,0.5,3.4
			c-0.2,1.4-0.2,2.8,0,4.1c0.2,1.3,0.7,1.7,1.5,1.4c0.6-0.2,2-1.4,4.3-3.4c2.9-2.4,5.2-3.5,6.8-3.4c0.8,0,1.3,0.6,1.4,1.8
			c0.1,1.2-0.2,2-0.6,2.5c-0.5,0.7-2.2,2.3-5.1,4.9c-2.9,2.5-4.6,3.8-5,3.8C-705.4-3512.8-708.4-3506.5-709.9-3496.2z
			 M-685.6-3455.2c0.2,1.3,0.3,2.1,0.5,2.4c1.9,10,2.1,19.2,0.5,27.7c-0.2,2-0.5,10.6-0.7,25.6l-0.4,22.5l-1.3,1.4
			c-0.5,1-1.3,1.4-2.3,1.3c-1.1-0.1-2-0.4-2.8-0.9c-0.8-0.5-1.5-1-2.3-1.6c-0.6-1-0.5-2.6,0.4-5c0.4,0.1,0.6-2,0.8-6.5
			c0.2-4.4,0.3-9,0.5-13.8c0.1-4.7,0.2-7.3,0.4-7.7c-0.1-3,0-7.6,0.5-13.8c0.4-6.2,0.7-11.2,0.8-14.9c0.1-3.8-0.2-8.3-1.1-13.6
			c-0.4-2.2-0.5-3.5-0.5-4.1c0-0.5,0.2-1,0.7-1.5c0.6-0.6,1.5-0.9,2.7-0.9c1.2,0,2.1,0.3,2.7,0.9
			C-686.1-3457.3-685.8-3456.5-685.6-3455.2z"/>
	</g>
</g>
<text transform="matrix(1 0 0 1 -659.167 -4005.4131)" class="st1" style="font-family:'ChenYuluoyan-Thin'; font-size:184.4302px;">珍成視界</text>
<text transform="matrix(1 0 0 1 -622.6058 -3761.9277)" class="st1" style="font-family:'lihsianti-Proportional'; font-size:184.4302px;">珍成視界</text>
<g>
	<g>
		<g>
			<path class="st0" d="M-1493.3-2330.1c-13.1,0-26.3,0-39.3,0c-4.4-0.1-9.3,0.6-12.2-2.8c-2.9-3.6-2.8-10.9-0.7-15
				c1.3-2.5,3.9-3.8,6.6-3.7c3,0,5.8,0,9.4,0c13,0,33.8,0,40.3,0c9-0.7,9.6,10.3,7.7,17c-1.8,4.5-7.5,4.4-11.7,4.4L-1493.3-2330.1z"
				/>
			<g>
				<path class="st0" d="M-1320.4-2155.7c-2.1,2.5-4.4,4.6-6.9,6.5c0,0.2,0.1,0.4,0,0.5c0.1-0.1-2,0.8-2.4,1.1
					c-5.5,3.5-11.8,5.6-18.4,5.6l-84.8,0l-113.3,0c-3.8,0-7.3-1-10.7-2.2c-6.4-2.4-12.6-6.9-16.7-12.4c-4.5-6-7.7-13.3-7.7-21
					l-0.1-59.8l0.1-46.5c0-7.2,2.7-13.9,6.6-19.7c2-3,4.3-5.4,7.1-7.8c6.3-5.4,14.5-8.8,23-8.8l196.1,0c9.7,0,18.5,4.3,25.2,10.8
					c1.2,1.1,1.3,1.1,2.1,2.2c1.1,1.5,2.3,2.9,3.3,4.5l0.9,1.4c1.5,2.4,2.5,4.9,3.3,7.6c1.3,3.9,1.7,7.7,1.7,11.9l0,103.9
					c0,4-1,7.6-2.2,11.3c-0.1,0.2,0.5,0.9,0.1,0.8c-0.2-0.1-0.5,0-0.5,0.3c-0.7,2.1-1.9,3.8-2.8,5.8c-0.2,0.5-0.3,0.7-0.7,1.1
					C-1319-2157.8-1319.5-2156.6-1320.4-2155.7z M-1454-2162.8c8.9,0.6,17.7,0.1,26.4-1.4c13.7-2.4,25.1-6.5,37.2-13.2l2.3-1.3
					c8.3-4.6,15.9-10.2,23.1-16.4l0.9-0.8c12.9-11.1,22.4-22.1,32.8-35.6c-0.2-0.8-0.8-1.2-1.2-1.8c-2.1-3-4.4-5.7-6.8-8.5
					c-0.9-1.1-1.7-2.2-2.7-3.2c-0.4-0.3-0.5-0.7-0.9-1c-1.6-1.9-3.2-3.8-5-5.6c-0.4-0.4-0.7-0.6-1-1.1c-0.8-1.1-1.8-2-2.7-3
					c-3.4-3.7-7.1-6.9-10.8-10.3l-0.9-0.8c-10.2-9.3-24.7-18.5-37.5-23.9c-17.3-7.3-37.1-11-55.8-9.3c-8.5,0.8-16.6,2.4-24.8,5
					c-5.2,1.7-10.2,3.6-15.1,5.9c-0.1,0.1-0.1,0.4-0.3,0.4c-0.1,0-0.3-0.2-0.5-0.1c-4.1,2-8.1,4-12,6.4c-0.4,0.3-0.8,0.5-1.2,0.7
					c-2.3,1.3-4.5,3-6.7,4.4c-0.1,0.1,0.2,0.6,0,0.5c-0.1,0-0.5-0.3-0.6-0.2c-3.4,2.6-7,5.1-10.1,8c-0.4,0.4-0.7,0.7-1.1,1
					c-3,2.3-5.6,4.9-8.3,7.5c-2.7,2.5-10.4,10.5-12.6,13.3c-0.3,0.3-0.5,0.6-0.8,0.9l-5,5.8l-5.4,6.7c-0.3,0.4-0.5,0.9-0.8,1.2
					c-0.7,0.6-0.4,1.2,0,1.7c2.5,3.3,5,6.5,7.7,9.6l6.7,7.7l5.5,5.9c4.5,4.9,9.3,9.2,14.4,13.5c6.8,5.7,13.9,10.6,21.5,15.1
					c3.9,2.3,7.7,4,11.7,5.9C-1481.6-2167-1467.8-2163.7-1454-2162.8z M-1547.7-2288.5c0-2.9-2.3-5.2-5.2-5.2s-5.2,2.3-5.2,5.2
					c0,2.9,2.3,5.2,5.2,5.2S-1547.7-2285.6-1547.7-2288.5z"/>
				<path class="st0" d="M-1423.7-2179.3c-47.2,18.7-95.2-24.1-77.6-72.9c12.8-34.1,55.5-46.6,86-27.9
					c39.5,24.2,34.6,83.2-8.2,100.8L-1423.7-2179.3z M-1404.2-2257.4c-2.1-12.9-19.6-18.1-28.5-8.6c-9.2,9.6-2.1,25.7,10.8,26.6
					c10,1.1,18.9-8.1,17.7-17.9L-1404.2-2257.4z M-1458-2252.7c0.8-0.9,1.9-1.5,2.8-2.3c0.2-0.2,0.4-0.4,0.3-0.7
					c-0.1-0.7-2.3-1.7-3.4-3.2c-0.5-0.6-0.9-1.3-1.3-1.8c-0.3-0.4-0.5-0.5-0.9-0.3c-0.6,0.4-1.5,2.4-3,3.4c-0.6,0.5-1.6,1-1.8,1.8
					c0,1.2,2.1,1.9,3.2,3.5c2.2,3.3,1.7,2.9,4-0.3L-1458-2252.7z M-1472.2-2232.6c0.3,0,0.6-0.3,1-0.8c0.9-1.3,1.7-3,2.8-4.3
					c1.5-2.4,5.6-4.4,7-5.6c1.2-1.2-0.6-2.2-1.6-2.9c-1.6-1-3.3-2.1-4.5-3.5c-1.9-2-3.1-5-4-5.9c-0.3-0.3-0.7-0.5-1-0.2
					c-1,0.6-2.1,4-4,6.1c-1.2,1.4-2.8,2.5-4.4,3.5c-1.2,0.8-3,1.9-1.4,3.2c1.8,1.4,4.1,2.6,5.6,4.4
					C-1474.5-2236.4-1473.8-2233.1-1472.2-2232.6L-1472.2-2232.6z M-1427.9-2220c-0.9,1.4-1.7,2.9-2.6,4.3
					c-5.1,7.8-15.9,10.4-24.2,6.4c-2.3-1.1-4.4-2.7-6.1-4.7c-2.6-2.9-3.3-7.3-6.9-8.8c-2-0.8-4.4,0.3-5.3,2.4
					c-2.1,5.7,2.4,12,6.4,15.9c12.4,12,34.5,9.9,44.3-4.5c2.2-3.2,4.5-7.7,2.9-11.4c-1.8-3.9-6.5-2.9-8.4,0.4L-1427.9-2220z"/>
			</g>
		</g>
	</g>
	<g>
		<path class="st0" d="M-1236.8-2202.5c4.2-1,10.2-2.6,18.2-4.9c7.9-2.3,16.9-4.9,27-7.9c10.1-3,20.2-6.1,30.4-9.3l0.4,1.7
			c-5.7,4.9-13.3,11.1-23,18.5c-9.7,7.4-21.5,15.7-35.5,24.8c-0.9,3-2.5,4.8-4.8,5.5L-1236.8-2202.5z M-1234.1-2314.6h40.9
			l12.4-17.7c3.1,2.6,5.7,4.9,8,7c2.3,2.1,4.7,4.3,7.3,6.5c2.6,2.3,4.9,4.4,6.8,6.4c-0.5,2-2.2,3-5.2,3h-68.8L-1234.1-2314.6z
			 M-1233.3-2263.1h43.5l10-16.8c4.2,4.3,7.6,7.9,10.3,10.9c2.7,3,5,5.7,7,8.1c-0.4,2-2,3-4.8,3h-64.6L-1233.3-2263.1z
			 M-1213.4-2314.6h25.8v107l-25.8,9.2V-2314.6z M-1088-2227l28.8,15.1c-0.5,0.9-1.3,1.5-2.4,2c-1.1,0.5-2.7,0.6-4.8,0.4
			c-7.4,8.2-16.9,15.9-28.5,22.9c-11.6,7-24.8,12.9-39.6,17.6c-14.8,4.7-30.7,8-47.8,9.7l-0.9-2.4c14.5-4.4,27.9-10.1,40.3-16.9
			c12.4-6.8,23.2-14.4,32.6-22.7C-1100.8-2209.6-1093.4-2218.1-1088-2227z M-1110.1-2320.7c-4.1,10.2-9.7,19.9-16.9,29.1
			c-7.2,9.2-15.2,17.6-24,25.2c-8.8,7.6-17.6,14-26.5,19.3l-1.3-1.5c4.9-5.7,9.7-12.1,14.5-19.5c4.7-7.3,9.1-15,13.1-23
			c4-8,7.4-15.8,10.1-23.4c2.8-7.6,4.6-14.6,5.4-20.8l36,8.3c-0.2,1.2-1,2.2-2.1,2.9c-1.2,0.7-3.2,1.1-6.2,1.4
			c3.4,7.5,8.1,14.2,13.9,20.2c5.8,6,12.2,11.1,19.1,15.4c6.9,4.3,13.4,7.8,19.5,10.5l-0.2,2.4c-5.7,1.7-10.2,5.1-13.6,10.1
			c-3.4,5-5.6,10.2-6.5,15.6c-5.4-5.3-10.4-11.7-15-19.3c-4.6-7.6-8.6-15.8-12-24.8C-1106.1-2301.6-1108.5-2311-1110.1-2320.7z
			 M-1107-2256.1l29.1,14.6c-0.5,0.9-1.2,1.6-2.2,2.1c-1,0.6-2.5,0.7-4.6,0.5c-5.7,6.2-12.8,12.1-21.3,17.8
			c-8.5,5.7-18.1,10.7-28.8,15c-10.6,4.3-21.9,7.6-33.8,9.8l-1.1-2c9.3-4.7,18.1-10.2,26.3-16.6c8.2-6.4,15.4-13.2,21.7-20.3
			C-1115.5-2242.4-1110.6-2249.4-1107-2256.1z M-1121.6-2285.1l28.4,15.9c-0.5,0.9-1.3,1.5-2.3,2c-1,0.5-2.6,0.6-4.7,0.4
			c-4.7,4.9-10.3,9.7-16.9,14.4c-6.6,4.7-13.9,8.9-21.9,12.7c-8.1,3.8-16.6,6.9-25.5,9.4l-1.3-2c6.6-4.5,12.8-9.8,18.6-15.9
			c5.8-6,10.9-12.3,15.3-18.7C-1127.5-2273.4-1124-2279.4-1121.6-2285.1z"/>
		<path class="st0" d="M-1032.5-2296v-1.8v-8.5l30.6,10.3h-3.9v39.5c0,7.5-0.4,15.6-1.2,24.4c-0.8,8.8-2.6,17.6-5.3,26.5
			c-2.8,8.9-7.1,17.4-13.1,25.5c-6,8.2-14.1,15.5-24.4,21.9l-1.3-1.3c5.8-9.6,10-19.9,12.6-30.9c2.6-11,4.3-22.2,5-33.5
			c0.7-11.3,1-22.2,1-32.6V-2296z M-1019.4-2296H-913l13.6-17.3c3.3,2.6,6.3,4.9,8.9,6.8c2.6,2,5.3,4.1,8.1,6.4
			c2.8,2.3,5.4,4.4,7.7,6.4c-0.5,2-2.3,3-5.3,3h-139.4V-2296z M-1018.3-2262h39.3v5.2h-39.3V-2262z M-987.3-2262h-1.8l12.4-11.8
			l21.2,17.7c-0.6,0.7-1.5,1.4-2.7,2c-1.2,0.6-2.7,1-4.5,1.3c-0.4,13.6-1,24.5-1.8,32.5c-0.8,8-2,14.1-3.6,18.3
			c-1.6,4.2-3.9,7.4-6.8,9.6c-2.7,2-5.8,3.5-9.4,4.5c-3.6,1-7.8,1.6-12.7,1.6c0-3.6-0.2-6.8-0.5-9.6c-0.3-2.8-1-5-2.1-6.6
			c-1.1-1.7-2.5-3.1-4.2-4.2c-1.7-1.1-4-2.1-6.8-3v-2.2c1.2,0.1,2.7,0.2,4.4,0.3c1.7,0.1,3.4,0.1,5.1,0.2c1.7,0.1,3,0.1,4,0.1
			c2.2,0,3.8-0.4,4.8-1.3c1.6-1.5,2.8-6,3.5-13.6C-988.2-2233.9-987.7-2245.8-987.3-2262z M-913.7-2276.8l33.8,11.4
			c-0.4,1.1-1,2-2,2.7c-1,0.7-2.7,1-5.2,0.8c-3.8,9.8-8.6,19.7-14.3,29.5c-5.7,9.8-12.6,19.3-20.7,28.3c-8.1,9-17.6,17.2-28.6,24.5
			c-11,7.3-23.7,13.4-38.1,18.4l-1.3-2c11.2-6.9,21-14.8,29.5-23.6c8.5-8.9,15.8-18.3,21.9-28.3c6.1-10,11.3-20.3,15.4-30.8
			C-919.1-2256.4-915.9-2266.7-913.7-2276.8z M-960-2334.1l33,3.1c-0.1,1.2-0.6,2.3-1.6,3.3c-0.9,1-2.6,1.7-5.1,2
			c-0.2,11.9,0,23.9,0.7,36c0.7,12.1,2.3,23.7,4.8,34.9c2.5,11.2,6.2,21.6,11.2,31.2c5,9.6,11.6,18,19.8,25.1c1.4,1.4,2.5,2,3.3,2
			c0.9,0,1.8-0.8,3-2.4c1.7-2.5,3.9-6,6.5-10.5c2.6-4.5,4.9-8.9,6.9-13.1l1.7,0.6l-5,33c3.6,6.5,5.7,11.7,6.4,15.4
			c0.7,3.7,0,6.5-1.9,8.2c-2.7,2.3-5.7,3.6-9.1,3.9c-3.4,0.2-6.8-0.2-10.2-1.4c-3.4-1.2-6.7-2.7-9.9-4.7c-3.1-2-5.7-4-7.8-6.1
			c-10.2-10.2-18.4-21.4-24.5-33.5c-6.1-12.1-10.8-25-14-38.6c-3.2-13.6-5.3-27.9-6.5-42.8C-959.5-2303.5-960-2318.6-960-2334.1z
			 M-925.3-2329.3c8.4-1,15.1-0.9,20.1,0.4c5,1.2,8.7,3.1,11,5.5c2.3,2.5,3.4,5.1,3.4,7.8c0,2.8-0.9,5.3-2.7,7.5
			c-1.8,2.2-4.2,3.7-7.1,4.3c-3,0.7-6.3,0.2-10-1.6c-0.9-2.8-2.2-5.7-3.9-8.5c-1.7-2.8-3.7-5.5-5.8-8c-2.2-2.5-4.3-4.6-6.4-6.4
			L-925.3-2329.3z"/>
		<path class="st0" d="M-827.6-2294.1l13.3-12.9l21.9,21c-0.9,0.9-1.9,1.5-3,1.9c-1.2,0.4-2.9,0.8-5.1,1c-3.8,8.6-8.8,17.3-15,26.1
			c-6.2,8.8-13.4,17.1-21.5,24.9c-8.1,7.8-17,14.5-26.6,20l-1.5-1.5c5-5.8,9.7-12,14-18.8c4.3-6.8,8.2-13.7,11.6-20.7
			c3.4-7.1,6.4-14.1,8.8-21.1s4.2-13.6,5.4-19.9H-827.6z M-809.2-2294.1v5.2h-52.6l-1.7-5.2H-809.2z M-845.7-2333.6
			c8.7,1.1,15.4,2.9,19.9,5.4c4.5,2.5,7.5,5.3,8.9,8.2c1.4,3,1.5,5.8,0.4,8.5c-1.1,2.7-3,4.9-5.6,6.5c-2.6,1.6-5.7,2.2-9.1,1.9
			c-3.4-0.3-6.8-2-10.1-5.1c0.1-3.1-0.1-6.1-0.6-9c-0.5-3-1.2-5.8-2.1-8.5c-0.9-2.7-1.9-5.1-2.9-7.2L-845.7-2333.6z M-815.2-2167.2
			c0,0.5-0.8,1.4-2.4,2.6c-1.6,1.2-3.9,2.4-6.9,3.4c-3,1-6.5,1.6-10.6,1.6h-4.6v-81.5l24.5-20.1V-2167.2z M-819.7-2258.1
			c8,2,14.2,4.4,18.6,7.4c4.4,3,7.4,6.1,9,9.3c1.6,3.3,2.1,6.3,1.7,9.2c-0.5,2.9-1.7,5.2-3.7,7c-2,1.8-4.4,2.7-7.3,2.7
			c-2.9,0-5.9-1.2-8.9-3.7c-0.4-3.6-1.1-7.2-2.3-10.9c-1.2-3.7-2.5-7.3-4.1-10.8c-1.5-3.5-3.1-6.6-4.7-9.3L-819.7-2258.1z
			 M-750.3-2234.7c-0.5,7.9-1.5,15.5-3,22.8c-1.5,7.3-4.2,14.2-8.1,20.6c-3.9,6.4-9.8,12.3-17.5,17.8c-7.7,5.5-18.1,10.4-31,14.7
			l-1.7-2.4c8.4-5.4,14.8-11,19.5-16.7c4.6-5.7,7.9-11.6,9.9-17.7c2-6.1,3.2-12.4,3.7-18.9c0.5-6.5,0.8-13.2,0.9-20.1H-750.3z
			 M-765.4-2228.8c0,0.9-1,2-3,3.3c-2,1.4-4.7,2.6-7.9,3.6c-3.3,1-6.7,1.6-10.4,1.6h-3.9v-98.7v-10.3l26.4,10.3h48.1v5.2h-49.2
			V-2228.8z M-718.2-2291v5.2h-62.9v-5.2H-718.2z M-718.2-2264.4v5.2h-62.9v-5.2H-718.2z M-717.7-2235.6v5.2h-62.9v-5.2H-717.7z
			 M-721.7-2234.7c0,1,0,2.1,0,3.3c0,1.2,0,2.2,0,3v37.6c0,1.1,0.2,1.9,0.5,2.3c0.3,0.4,1.1,0.6,2.3,0.6h4.6c0.9,0,1.6,0,2.3,0
			c0.7,0,1.3,0,1.8,0c1.4,0,2.5-0.7,3.5-2.2c0.9-1.5,2-4.2,3.5-8.3s3.1-8.7,5-14h1.8l0.6,23.4c2.7,1.4,4.4,2.8,5.2,4.4
			c0.7,1.6,1.1,3.6,1.1,5.9c0,3.1-0.9,5.7-2.7,7.8c-1.8,2.1-4.7,3.8-8.9,4.9c-4.1,1.1-9.6,1.7-16.5,1.7h-10c-5.7,0-9.9-0.6-12.6-1.8
			c-2.8-1.2-4.5-3.4-5.3-6.4c-0.8-3-1.2-7-1.2-12.1v-50.2H-721.7z M-732.8-2319l11.2-12.5l23.1,17.9c-0.6,0.7-1.5,1.5-2.8,2.2
			c-1.2,0.7-2.8,1.3-4.6,1.7v80.8c-0.1,0.5-1.4,1.2-3.7,2.2c-2.3,1-5.1,1.9-8.2,2.8c-3.1,0.9-6.1,1.3-8.9,1.3h-4.2v-96.3H-732.8z"/>
		<path class="st0" d="M-621.6-2260.2h31.2v3c-8.1,12.3-19.8,22.3-35,30c-15.2,7.7-33.3,13.5-54.2,17.4l-1.1-2.2
			c14-5.3,26.1-12.1,36.1-20.5C-634.6-2240.9-626.9-2250.1-621.6-2260.2z M-632.1-2235.1l32.1,3c-0.1,1.2-0.6,2.3-1.5,3.1
			c-0.9,0.9-2.3,1.4-4.4,1.7v15.5c-0.1,5.4-1.1,10.8-3,16.1c-1.8,5.3-5.2,10.4-10.1,15.1c-4.9,4.7-11.9,9-20.9,12.7
			c-9,3.8-20.8,6.8-35.3,9.1l-0.9-1.7c9.5-3.3,17.1-7,23-11.1c5.8-4.1,10.3-8.3,13.4-12.8c3.1-4.5,5.1-9.1,6.2-13.8
			c1-4.7,1.6-9.4,1.6-14.1V-2235.1z M-657.2-2322.3v-10.7l28,10.7h87.2v5.2H-631v63.4c0,0.9-1.1,2-3.3,3.3c-2.2,1.4-5,2.6-8.4,3.6
			c-3.4,1-6.9,1.6-10.6,1.6h-3.9V-2322.3z M-642.2-2260.7h104.4v5.2h-104.4V-2260.7z M-642.1-2292.1h104.4v5.2h-104.4V-2292.1z
			 M-606.3-2321h25.8v61h-25.8V-2321z M-577.3-2260.5c4.5,5.9,10.7,10.7,18.5,14.4c7.8,3.7,16.4,6.5,25.7,8.5
			c9.3,2,18.6,3.3,27.7,4.1l-0.2,2.2c-4.8,1.5-8.7,4.3-11.8,8.5c-3.1,4.2-5.2,9.5-6.5,15.9c-8.7-3.4-16.7-7.5-23.8-12.2
			c-7.1-4.7-13.3-10.3-18.6-16.8c-5.3-6.5-9.6-14.3-12.9-23.4L-577.3-2260.5z M-579-2235.8l29.9,2.6c-0.1,0.7-0.4,1.4-0.9,1.8
			c-0.5,0.5-1.4,0.9-2.8,1.1v64.7c0,0.5-1.1,1.3-3.4,2.3c-2.3,1-5,2-8.3,2.9c-3.3,0.9-6.4,1.3-9.3,1.3h-5.2V-2235.8z M-553.9-2322.3
			h-1.8l11.6-12.9l24.2,18.3c-0.5,0.7-1.3,1.5-2.5,2.3c-1.2,0.8-2.7,1.4-4.7,1.8v59c0,0.5-1.3,1.2-3.8,2.2c-2.5,1-5.5,1.9-8.9,2.7
			c-3.4,0.8-6.5,1.2-9.5,1.2h-4.6V-2322.3z"/>
	</g>
</g>
<g>
	<g>
		<path class="st0" d="M-2699.9-2203.6c4.2-1,10.2-2.6,18.2-4.9c7.9-2.3,16.9-4.9,27-7.9c10.1-3,20.2-6.1,30.4-9.3l0.4,1.7
			c-5.7,4.9-13.3,11.1-23,18.5c-9.7,7.4-21.5,15.7-35.5,24.8c-0.9,3-2.5,4.8-4.8,5.5L-2699.9-2203.6z M-2697.1-2315.8h40.9
			l12.4-17.7c3.1,2.6,5.7,4.9,8,7c2.3,2.1,4.7,4.3,7.3,6.5c2.6,2.3,4.9,4.4,6.8,6.4c-0.5,2-2.2,3-5.2,3h-68.8L-2697.1-2315.8z
			 M-2696.4-2264.3h43.5l10-16.8c4.2,4.3,7.6,7.9,10.3,10.9c2.7,3,5,5.7,7,8.1c-0.4,2-2,3-4.8,3h-64.6L-2696.4-2264.3z
			 M-2676.4-2315.8h25.8v107l-25.8,9.2V-2315.8z M-2551-2228.2l28.8,15.1c-0.5,0.9-1.3,1.5-2.4,2c-1.1,0.5-2.7,0.6-4.8,0.4
			c-7.4,8.2-16.9,15.9-28.5,22.9c-11.6,7-24.8,12.9-39.6,17.6c-14.8,4.7-30.7,8-47.8,9.7l-0.9-2.4c14.5-4.4,27.9-10.1,40.3-16.9
			c12.4-6.8,23.2-14.4,32.6-22.7C-2563.8-2210.8-2556.4-2219.3-2551-2228.2z M-2573.2-2321.9c-4.1,10.2-9.7,19.9-16.9,29.1
			c-7.2,9.2-15.2,17.6-24,25.2c-8.8,7.6-17.6,14-26.5,19.3l-1.3-1.5c4.9-5.7,9.7-12.1,14.5-19.5c4.7-7.3,9.1-15,13.1-23
			c4-8,7.4-15.8,10.1-23.4c2.8-7.6,4.6-14.6,5.4-20.8l36,8.3c-0.2,1.2-1,2.2-2.1,2.9c-1.2,0.7-3.2,1.1-6.2,1.4
			c3.4,7.5,8.1,14.2,13.9,20.2c5.8,6,12.2,11.1,19.1,15.4c6.9,4.3,13.4,7.8,19.5,10.5l-0.2,2.4c-5.7,1.7-10.2,5.1-13.6,10.1
			c-3.4,5-5.6,10.2-6.5,15.6c-5.4-5.3-10.4-11.7-15-19.3c-4.6-7.6-8.6-15.8-12-24.8C-2569.1-2302.8-2571.6-2312.2-2573.2-2321.9z
			 M-2570-2257.3l29.1,14.6c-0.5,0.9-1.2,1.6-2.2,2.1c-1,0.6-2.5,0.7-4.6,0.5c-5.7,6.2-12.8,12.1-21.3,17.8
			c-8.5,5.7-18.1,10.7-28.8,15c-10.6,4.3-21.9,7.6-33.8,9.8l-1.1-2c9.3-4.7,18.1-10.2,26.3-16.6c8.2-6.4,15.4-13.2,21.7-20.3
			C-2578.5-2243.6-2573.6-2250.6-2570-2257.3z M-2584.6-2286.3l28.4,15.9c-0.5,0.9-1.3,1.5-2.3,2c-1,0.5-2.6,0.6-4.7,0.4
			c-4.7,4.9-10.3,9.7-16.9,14.4c-6.6,4.7-13.9,8.9-21.9,12.7c-8.1,3.8-16.6,6.9-25.5,9.4l-1.3-2c6.6-4.5,12.8-9.8,18.6-15.9
			c5.8-6,10.9-12.3,15.3-18.7C-2590.5-2274.6-2587.1-2280.6-2584.6-2286.3z"/>
		<path class="st0" d="M-2495.5-2297.2v-1.8v-8.5l30.6,10.3h-3.9v39.5c0,7.5-0.4,15.6-1.2,24.4c-0.8,8.8-2.6,17.6-5.3,26.5
			c-2.8,8.9-7.1,17.4-13.1,25.5c-6,8.2-14.1,15.5-24.4,21.9l-1.3-1.3c5.8-9.6,10-19.9,12.6-30.9c2.6-11,4.3-22.2,5-33.5
			c0.7-11.3,1-22.2,1-32.6V-2297.2z M-2482.4-2297.2h106.4l13.6-17.3c3.3,2.6,6.3,4.9,8.9,6.8c2.6,2,5.3,4.1,8.1,6.4
			c2.8,2.3,5.4,4.4,7.7,6.4c-0.5,2-2.3,3-5.3,3h-139.4V-2297.2z M-2481.3-2263.2h39.3v5.2h-39.3V-2263.2z M-2450.3-2263.2h-1.8
			l12.4-11.8l21.2,17.7c-0.6,0.7-1.5,1.4-2.7,2c-1.2,0.6-2.7,1-4.5,1.3c-0.4,13.6-1,24.5-1.8,32.5c-0.8,8-2,14.1-3.6,18.3
			c-1.6,4.2-3.9,7.4-6.8,9.6c-2.7,2-5.8,3.5-9.4,4.5c-3.6,1-7.8,1.6-12.7,1.6c0-3.6-0.2-6.8-0.5-9.6c-0.3-2.8-1-5-2.1-6.6
			c-1.1-1.7-2.5-3.1-4.2-4.2c-1.7-1.1-4-2.1-6.8-3v-2.2c1.2,0.1,2.7,0.2,4.4,0.3c1.7,0.1,3.4,0.1,5.1,0.2c1.7,0.1,3,0.1,4,0.1
			c2.2,0,3.8-0.4,4.8-1.3c1.6-1.5,2.8-6,3.5-13.6C-2451.3-2235.1-2450.7-2247-2450.3-2263.2z M-2376.7-2278l33.8,11.4
			c-0.4,1.1-1,2-2,2.7c-1,0.7-2.7,1-5.2,0.8c-3.8,9.8-8.6,19.7-14.3,29.5c-5.7,9.8-12.6,19.3-20.7,28.3c-8.1,9-17.6,17.2-28.6,24.5
			c-11,7.3-23.7,13.4-38.1,18.4l-1.3-2c11.2-6.9,21-14.8,29.5-23.6c8.5-8.9,15.8-18.3,21.9-28.3c6.1-10,11.3-20.3,15.4-30.8
			C-2382.1-2257.6-2379-2267.9-2376.7-2278z M-2423-2335.3l33,3.1c-0.1,1.2-0.6,2.3-1.6,3.3c-0.9,1-2.6,1.7-5.1,2
			c-0.2,11.9,0,23.9,0.7,36c0.7,12.1,2.3,23.7,4.8,34.9c2.5,11.2,6.2,21.6,11.2,31.2c5,9.6,11.6,18,19.8,25.1c1.4,1.4,2.5,2,3.3,2
			c0.9,0,1.8-0.8,3-2.4c1.7-2.5,3.9-6,6.5-10.5c2.6-4.5,4.9-8.9,6.9-13.1l1.7,0.6l-5,33c3.6,6.5,5.7,11.7,6.4,15.4
			c0.7,3.7,0,6.5-1.9,8.2c-2.7,2.3-5.7,3.6-9.1,3.9c-3.4,0.2-6.8-0.2-10.2-1.4c-3.4-1.2-6.7-2.7-9.9-4.7c-3.1-2-5.7-4-7.8-6.1
			c-10.2-10.2-18.4-21.4-24.5-33.5c-6.1-12.1-10.8-25-14-38.6c-3.2-13.6-5.3-27.9-6.5-42.8C-2422.5-2304.7-2423-2319.8-2423-2335.3z
			 M-2388.4-2330.5c8.4-1,15.1-0.9,20.1,0.4c5,1.2,8.7,3.1,11,5.5c2.3,2.5,3.4,5.1,3.4,7.8c0,2.8-0.9,5.3-2.7,7.5
			c-1.8,2.2-4.2,3.7-7.1,4.3c-3,0.7-6.3,0.2-10-1.6c-0.9-2.8-2.2-5.7-3.9-8.5c-1.7-2.8-3.7-5.5-5.8-8c-2.2-2.5-4.3-4.6-6.4-6.4
			L-2388.4-2330.5z"/>
		<path class="st0" d="M-2290.6-2295.3l13.3-12.9l21.9,21c-0.9,0.9-1.9,1.5-3,1.9c-1.2,0.4-2.9,0.8-5.1,1c-3.8,8.6-8.8,17.3-15,26.1
			c-6.2,8.8-13.4,17.1-21.5,24.9c-8.1,7.8-17,14.5-26.6,20l-1.5-1.5c5-5.8,9.7-12,14-18.8c4.3-6.8,8.2-13.7,11.6-20.7
			c3.4-7.1,6.4-14.1,8.8-21.1s4.2-13.6,5.4-19.9H-2290.6z M-2272.2-2295.3v5.2h-52.6l-1.7-5.2H-2272.2z M-2308.7-2334.8
			c8.7,1.1,15.4,2.9,19.9,5.4c4.5,2.5,7.5,5.3,8.9,8.2c1.4,3,1.5,5.8,0.4,8.5c-1.1,2.7-3,4.9-5.6,6.5c-2.6,1.6-5.7,2.2-9.1,1.9
			c-3.4-0.3-6.8-2-10.1-5.1c0.1-3.1-0.1-6.1-0.6-9c-0.5-3-1.2-5.8-2.1-8.5c-0.9-2.7-1.9-5.1-2.9-7.2L-2308.7-2334.8z
			 M-2278.3-2168.4c0,0.5-0.8,1.4-2.4,2.6c-1.6,1.2-3.9,2.4-6.9,3.4c-3,1-6.5,1.6-10.6,1.6h-4.6v-81.5l24.5-20.1V-2168.4z
			 M-2282.7-2259.3c8,2,14.2,4.4,18.6,7.4c4.4,3,7.4,6.1,9,9.3c1.6,3.3,2.1,6.3,1.7,9.2c-0.5,2.9-1.7,5.2-3.7,7
			c-2,1.8-4.4,2.7-7.3,2.7c-2.9,0-5.9-1.2-8.9-3.7c-0.4-3.6-1.1-7.2-2.3-10.9c-1.2-3.7-2.5-7.3-4.1-10.8c-1.5-3.5-3.1-6.6-4.7-9.3
			L-2282.7-2259.3z M-2213.3-2235.9c-0.5,7.9-1.5,15.5-3,22.8c-1.5,7.3-4.2,14.2-8.1,20.6c-3.9,6.4-9.8,12.3-17.5,17.8
			c-7.7,5.5-18.1,10.4-31,14.7l-1.7-2.4c8.4-5.4,14.8-11,19.5-16.7c4.6-5.7,7.9-11.6,9.9-17.7c2-6.1,3.2-12.4,3.7-18.9
			c0.5-6.5,0.8-13.2,0.9-20.1H-2213.3z M-2228.5-2230c0,0.9-1,2-3,3.3c-2,1.4-4.7,2.6-7.9,3.6c-3.3,1-6.7,1.6-10.4,1.6h-3.9v-98.7
			v-10.3l26.4,10.3h48.1v5.2h-49.2V-2230z M-2181.2-2292.2v5.2h-62.9v-5.2H-2181.2z M-2181.2-2265.6v5.2h-62.9v-5.2H-2181.2z
			 M-2180.7-2236.8v5.2h-62.9v-5.2H-2180.7z M-2184.8-2235.9c0,1,0,2.1,0,3.3c0,1.2,0,2.2,0,3v37.6c0,1.1,0.2,1.9,0.5,2.3
			c0.3,0.4,1.1,0.6,2.3,0.6h4.6c0.9,0,1.6,0,2.3,0c0.7,0,1.3,0,1.8,0c1.4,0,2.5-0.7,3.5-2.2c0.9-1.5,2-4.2,3.5-8.3s3.1-8.7,5-14h1.8
			l0.6,23.4c2.7,1.4,4.4,2.8,5.2,4.4c0.7,1.6,1.1,3.6,1.1,5.9c0,3.1-0.9,5.7-2.7,7.8c-1.8,2.1-4.7,3.8-8.9,4.9
			c-4.1,1.1-9.6,1.7-16.5,1.7h-10c-5.7,0-9.9-0.6-12.6-1.8c-2.8-1.2-4.5-3.4-5.3-6.4c-0.8-3-1.2-7-1.2-12.1v-50.2H-2184.8z
			 M-2195.8-2320.2l11.2-12.5l23.1,17.9c-0.6,0.7-1.5,1.5-2.8,2.2c-1.2,0.7-2.8,1.3-4.6,1.7v80.8c-0.1,0.5-1.4,1.2-3.7,2.2
			c-2.3,1-5.1,1.9-8.2,2.8c-3.1,0.9-6.1,1.3-8.9,1.3h-4.2v-96.3H-2195.8z"/>
		<path class="st0" d="M-2084.6-2261.4h31.2v3c-8.1,12.3-19.8,22.3-35,30c-15.2,7.7-33.3,13.5-54.2,17.4l-1.1-2.2
			c14-5.3,26.1-12.1,36.1-20.5C-2097.6-2242.1-2089.9-2251.3-2084.6-2261.4z M-2095.1-2236.3l32.1,3c-0.1,1.2-0.6,2.3-1.5,3.1
			c-0.9,0.9-2.3,1.4-4.4,1.7v15.5c-0.1,5.4-1.1,10.8-3,16.1c-1.8,5.3-5.2,10.4-10.1,15.1c-4.9,4.7-11.9,9-20.9,12.7
			c-9,3.8-20.8,6.8-35.3,9.1l-0.9-1.7c9.5-3.3,17.1-7,23-11.1c5.8-4.1,10.3-8.3,13.4-12.8c3.1-4.5,5.1-9.1,6.2-13.8
			c1-4.7,1.6-9.4,1.6-14.1V-2236.3z M-2120.2-2323.5v-10.7l28,10.7h87.2v5.2h-89.1v63.4c0,0.9-1.1,2-3.3,3.3c-2.2,1.4-5,2.6-8.4,3.6
			c-3.4,1-6.9,1.6-10.6,1.6h-3.9V-2323.5z M-2105.3-2261.9h104.4v5.2h-104.4V-2261.9z M-2105.1-2293.3h104.4v5.2h-104.4V-2293.3z
			 M-2069.3-2322.2h25.8v61h-25.8V-2322.2z M-2040.3-2261.7c4.5,5.9,10.7,10.7,18.5,14.4c7.8,3.7,16.4,6.5,25.7,8.5
			c9.3,2,18.6,3.3,27.7,4.1l-0.2,2.2c-4.8,1.5-8.7,4.3-11.8,8.5c-3.1,4.2-5.2,9.5-6.5,15.9c-8.7-3.4-16.7-7.5-23.8-12.2
			c-7.1-4.7-13.3-10.3-18.6-16.8c-5.3-6.5-9.6-14.3-12.9-23.4L-2040.3-2261.7z M-2042-2237l29.9,2.6c-0.1,0.7-0.4,1.4-0.9,1.8
			c-0.5,0.5-1.4,0.9-2.8,1.1v64.7c0,0.5-1.1,1.3-3.4,2.3c-2.3,1-5,2-8.3,2.9c-3.3,0.9-6.4,1.3-9.3,1.3h-5.2V-2237z M-2016.9-2323.5
			h-1.8l11.6-12.9l24.2,18.3c-0.5,0.7-1.3,1.5-2.5,2.3c-1.2,0.8-2.7,1.4-4.7,1.8v59c0,0.5-1.3,1.2-3.8,2.2c-2.5,1-5.5,1.9-8.9,2.7
			c-3.4,0.8-6.5,1.2-9.5,1.2h-4.6V-2323.5z"/>
	</g>
</g>
<text transform="matrix(1 0 0 1 -1224.5594 -2804.9124)" class="st1" style="font-family:'lihsianti-Proportional'; font-size:184.4302px;">珍成視界</text>
<image style="overflow:visible;" width="379" height="417" xlink:href="7D60717F.jpg"  transform="matrix(1 0 0 1 -1426.3478 -1912.3528)">
</image>
<g>
	<linearGradient id="SVGID_1_" gradientUnits="userSpaceOnUse" x1="0.5573" y1="82.8417" x2="124.0256" y2="181.7885">
		<stop  offset="0" style="stop-color:#F7F8F8"/>
		<stop  offset="1" style="stop-color:#191919"/>
	</linearGradient>
	<path class="st2" d="M161.3,151.8c-0.6,11.5-3.9,21.7-9.2,31.4c-8.3,15-20.3,26.2-35.3,34.5c-2.8,1.6-5,1.4-7.5-0.3
		c-23.9-16.8-37.4-39.5-38.5-69c-0.4-10.1,0.1-20.1,3.6-29.7c0.5-1.4,0.5-3.6,2.4-3.4c2,0.2,1.4,2.4,1.4,3.9
		c-0.4,10.5,1.6,20.6,5.2,30.5c7.8,21.1,28.3,33,48.9,28.1c12.5-3,20.9-10.8,26-22.4C158.8,154.1,158.7,152.5,161.3,151.8z
		 M31.4,227.6c15-0.7,27-14.1,26.4-29.5c-0.5-14.3-13.4-26.2-27.8-25.6C15,173.2,2.5,186,3.1,200.3C3.7,216.3,16.2,228.3,31.4,227.6
		z M123.8,53c-2.5-2-4.5-1.5-6.3-1.5c-29,0-57.9,0-86.9,0c-2,0-4.1,0-6.1,0.1c-1.8,0.1-2.6,1.4-2.7,3.1c-0.1,1.9,0.3,3.5,2.4,3.9
		c1.5,0.3,3,0.3,4.6,0.3c11.4,0,22.8,0,34.2,0c6.7,0,6.7,0.1,6.8,7c0,12.8,0,25.6,0,38.3c0,1.8-0.6,3.7,1.7,6.2
		C82.5,85.3,97.9,64.5,123.8,53z M145.8,131c3.8,9.2,1.5,20.4-6,27.2c-7.9,7.1-17.1,9-27,4.7c-9.4-4.1-14.4-11.5-14.9-21.8
		c-0.1-1.2,0.7-3.1-1.7-2.5c-2.9,0.7-6,6.4-5.2,9.4c3.5,13.9,18.5,25.2,32.7,24.5c14.2-0.7,27.1-10.5,30.1-22.9
		c3.7-15.3-1.8-28.8-15.1-36.7c-16.5-9.8-40.5-0.9-46.4,17.2c-0.4,1.1-1.2,2.5,0,3.3c1.5,1.1,2.5-0.5,3.4-1.4c2.7-2.6,5.3-5.3,8-7.8
		c5.3-4.9,11.2-8.3,18.3-7.9C133.4,116.1,141.9,121.5,145.8,131z M68.7,176.8c0,5.5,0.2,11.1,0,16.6c-0.8,14.7-6.8,26.5-19.5,34.5
		c-1.1,0.7-3.1,0.9-2.7,2.6c0.5,1.9,2.5,1.3,4,1.3c17.2,0.7,33.9-1.6,50.3-6.8c1.5-0.5,3.8-0.3,4-2.4c0.2-1.8-1.8-2.3-3-3.2
		c-10.2-7.7-18.7-16.9-24.5-28.3c-2.4-4.8-4.6-9.7-6.9-14.6C69.9,176.6,69.3,176.7,68.7,176.8z M122.1,159.2
		c11,0.1,19.6-8.1,19.6-18.6c0-10.4-9.3-19.4-19.8-19.2c-10.1,0.2-18.4,8.7-18.4,18.8C103.6,150.7,111.7,159.1,122.1,159.2z"/>
	
		<linearGradient id="SVGID_00000111186167800185557670000005100080346450153405_" gradientUnits="userSpaceOnUse" x1="88.4811" y1="116.9656" x2="281.3465" y2="157.9393">
		<stop  offset="0" style="stop-color:#F5F5F5"/>
		<stop  offset="1" style="stop-color:#CDAA39"/>
	</linearGradient>
	<path style="fill:url(#SVGID_00000111186167800185557670000005100080346450153405_);" d="M235.2,58.9c-3.8,0-7.4,0-11.1,0
		c-1.7,0-3.4,0-5.1-0.1c-2.4-0.2-3.9-1.3-3.8-3.8c0-2.7,1.9-3.3,4.2-3.3c14.1,0,28.3,0,42.4,0c2.2,0,4.1,0.5,4,3.4
		c0,2.9-1.6,3.9-4.2,3.9c-2.2,0-4.6,0.4-6.6-0.1c-5.9-1.6-9.8,0.7-13.6,5.1c-13,15.5-26.4,30.7-39.6,46c-1.9,2.2-2.2,4.1-0.6,6.8
		c17.9,30.1,35.7,60.3,53.5,90.5c2.5,4.2,5.3,8.3,7.5,12.7c1.9,3.8,4.7,5,8.7,4.6c2-0.2,4.1,0,6.1,0.1c2.2,0.1,3.5,1.3,3.5,3.6
		c0,2.3-1.4,3.3-3.6,3.5c-1,0.1-2,0.1-3.1,0.1c-22.1,0-44.3,0-66.4,0c-0.9,0-1.7,0-2.6,0c-2.3-0.1-4-0.9-4-3.5
		c0-2.6,1.5-3.6,3.9-3.7c3.1,0,6.1-0.1,9.2,0c3.4,0,4.4-1.1,2.5-4.3c-10.2-17.3-20.2-34.7-30.3-52.1c-5.3-9.1-10.6-18.3-16-27.3
		c-1.4-2.4-1.4-4.2,0.5-6.3c8.9-10,17.6-20.2,26.4-30.3c12.6-14.5,25.3-28.9,37.9-43.4C235.1,60.4,235,60,235.2,58.9z M165.2,134.3
		c0.1-23,0.2-46,0-69c0-4.9,0.8-7.4,6.4-6.5c3,0.5,6.1,0.1,9.2,0.1c2.6,0,4.8-0.7,4.8-4c-0.1-3.1-2.4-3.3-4.7-3.3
		c-7.5,0-15,0-22.5,0c-25.9,0-46.9,10.2-62.8,30.6c-9,11.5-14,24.5-11.6,39.5c0.3,1.6-0.7,4.4,1.9,4.7c1.9,0.2,2.2-2.3,3-3.7
		c9-15.8,25.5-23.6,42.8-19.5c15.2,3.6,24.9,13.4,29.2,28.5c0.9,3,0.9,6.3,3.3,9.5C165.6,138.4,165.2,136.3,165.2,134.3z
		 M156.7,186.2c-7.9,15-19.7,26.2-34.2,34.9c-1,0.6-2.5,0.9-2.5,2.3c0,1.8,1.7,1.9,2.9,2.3c18.8,7.2,38.4,6.1,57.9,5.8
		c2.2,0,3.4-1.4,3.5-3.6c0-2.3-1.4-3.4-3.5-3.4c-3.1-0.1-6.1-0.3-9.2,0c-4.8,0.4-6.6-1.3-6.5-6.3c0.3-14.1,0.1-28.2,0.1-42.3
		c0-1.8,0.6-3.7-1.4-5.8C161.4,175.7,159.4,181.1,156.7,186.2z"/>
</g>
</svg>
