<?xml version="1.0" encoding="UTF-8"?>
<svg id="_圖層_1" data-name="圖層 1" xmlns="http://www.w3.org/2000/svg" viewBox="0 0 1130.89 328.7">
  <defs>
    <style>
      .cls-1 {
        stroke: #171818;
        stroke-miterlimit: 10;
        stroke-width: 3px;
      }

      .cls-1, .cls-2 {
        fill: #171818;
      }
    </style>
  </defs>
  <g>
    <path class="cls-2" d="M192.24,80.96c-13.14-.01-26.31-.04-39.3.03-4.35-.11-9.3.62-12.17-2.76-2.87-3.62-2.77-10.92-.7-14.97,1.29-2.48,3.89-3.82,6.63-3.66,3.01,0,5.8,0,9.4,0,13.01,0,33.76-.01,40.32-.01,9-.66,9.65,10.29,7.65,16.97-1.75,4.49-7.48,4.42-11.67,4.43h-.18Z"/>
    <g>
      <path class="cls-2" d="M365.16,255.39c-2.15,2.49-4.38,4.57-6.89,6.52,0,.18.09.4.05.48.07-.14-1.97.85-2.44,1.15-5.48,3.51-11.79,5.6-18.44,5.6h-84.77s-113.28,0-113.28,0c-3.76,0-7.3-.97-10.7-2.21-6.44-2.35-12.59-6.91-16.7-12.43-4.5-6.05-7.73-13.26-7.74-21l-.09-59.82.05-46.51c0-7.17,2.65-13.87,6.56-19.66,2.03-3.01,4.34-5.42,7.06-7.76,6.3-5.43,14.55-8.8,23.02-8.8h196.14c9.68,0,18.46,4.28,25.24,10.8,1.19,1.15,1.27,1.08,2.07,2.16,1.13,1.51,2.28,2.92,3.29,4.52l.9,1.42c1.52,2.4,2.46,4.94,3.34,7.63,1.29,3.9,1.68,7.68,1.68,11.85l-.04,103.95c0,3.97-.97,7.62-2.19,11.27-.06.16.46.93.08.78-.23-.08-.45.02-.54.26-.71,2.08-1.9,3.85-2.82,5.8-.23.49-.28.68-.68,1.06-.86.83-1.36,1.98-2.18,2.94ZM231.52,248.3c8.89.63,17.65.15,26.43-1.37,13.71-2.38,25.05-6.52,37.2-13.18l2.33-1.28c8.32-4.56,15.93-10.2,23.12-16.39l.95-.82c12.86-11.08,22.42-22.13,32.8-35.62-.21-.77-.78-1.19-1.18-1.77-2.07-3-4.38-5.71-6.76-8.46-.94-1.09-1.71-2.23-2.75-3.19-.37-.34-.55-.68-.87-1.05-1.64-1.9-3.23-3.78-5.02-5.56-.39-.39-.68-.65-1.01-1.09-.83-1.08-1.8-1.95-2.75-2.96-3.43-3.66-7.13-6.94-10.83-10.32l-.9-.83c-10.2-9.33-24.67-18.47-37.46-23.89-17.28-7.32-37.07-11.01-55.82-9.31-8.54.78-16.64,2.44-24.78,5.05-5.21,1.67-10.15,3.57-15.06,5.92-.14.07-.12.39-.26.43-.09.03-.31-.16-.46-.09-4.12,1.95-8.11,3.97-11.96,6.44-.44.28-.76.46-1.22.71-2.33,1.27-4.54,2.99-6.68,4.38-.09.06.24.55.04.53-.09-.01-.48-.28-.56-.22-3.42,2.55-6.97,5.09-10.15,7.97-.44.4-.65.68-1.12,1.03-3.02,2.25-5.57,4.93-8.34,7.5s-10.38,10.52-12.57,13.28c-.27.34-.5.56-.78.89l-4.97,5.82-5.4,6.66c-.32.4-.46.89-.84,1.21-.72.6-.38,1.22,0,1.73,2.48,3.33,4.97,6.47,7.69,9.58l6.73,7.7,5.5,5.94c4.49,4.85,9.33,9.22,14.43,13.49,6.78,5.66,13.9,10.62,21.51,15.05,3.87,2.25,7.66,4.04,11.69,5.94,12.44,5.88,26.3,9.18,40.06,10.15ZM137.85,122.59c0-2.88-2.33-5.21-5.21-5.21s-5.21,2.33-5.21,5.21,2.33,5.21,5.21,5.21,5.21-2.33,5.21-5.21Z"/>
      <path class="cls-2" d="M261.84,231.79c-47.2,18.7-95.2-24.14-77.57-72.94,12.8-34.15,55.46-46.62,85.96-27.9,39.51,24.21,34.61,83.23-8.23,100.77l-.17.07ZM281.35,153.69c-2.06-12.87-19.55-18.06-28.51-8.57-9.21,9.58-2.06,25.66,10.79,26.64,10.01,1.08,18.91-8.14,17.74-17.92l-.02-.16ZM227.53,158.32c.75-.92,1.94-1.52,2.77-2.29.21-.22.35-.41.31-.69-.06-.74-2.32-1.67-3.44-3.24-.45-.57-.88-1.32-1.3-1.85-.31-.35-.54-.49-.87-.27-.63.4-1.53,2.41-2.97,3.45-.61.55-1.62,1.04-1.83,1.84,0,1.18,2.11,1.85,3.22,3.52,2.16,3.33,1.73,2.9,3.97-.29l.15-.18ZM213.34,178.45c.31-.02.63-.3.99-.79.9-1.28,1.73-3.02,2.75-4.32,1.52-2.4,5.64-4.41,7.02-5.62,1.23-1.16-.56-2.17-1.61-2.85-1.59-.98-3.27-2.09-4.53-3.52-1.87-1.96-3.08-5.04-4.02-5.93-.29-.3-.68-.45-1.05-.2-1.01.57-2.14,4.04-3.97,6.11-1.18,1.45-2.84,2.52-4.39,3.49-1.24.8-3.05,1.91-1.37,3.21,1.78,1.39,4.13,2.55,5.63,4.36,2.21,2.31,2.93,5.57,4.45,6.06h.08ZM257.6,191.08c-.93,1.36-1.69,2.88-2.63,4.25-5.09,7.8-15.93,10.45-24.18,6.39-2.31-1.11-4.42-2.7-6.06-4.67-2.62-2.94-3.33-7.33-6.93-8.85-2.01-.8-4.43.34-5.28,2.36-2.1,5.73,2.42,11.97,6.43,15.86,12.44,12.03,34.54,9.88,44.28-4.49,2.21-3.19,4.5-7.69,2.89-11.42-1.83-3.94-6.5-2.88-8.4.41l-.11.16Z"/>
    </g>
  </g>
  <g>
    <path class="cls-1" d="M474.72,121.78c-3.36,2.22-6.06,3.57-8.11,4.05-1.32.36-2.55.84-3.69,1.44-1.14.6-2.34,1.08-3.6,1.44-1.26.36-3.33.6-6.21.72-1.8.36-3.09.21-3.87-.45-.78-.66-1.41-1.83-1.89-3.51-.24-1.2-.15-1.98.27-2.34.42-.36,1.35-.6,2.79-.72,1.44-.12,2.52-.3,3.24-.54,4.56-.36,8.22-1.02,10.99-1.98,2.76-.96,5.76-2.4,9-4.32,1.56-.72,2.97-.9,4.23-.54s1.89,1.08,1.89,2.16c0,.84-1.68,2.37-5.04,4.59ZM455.26,189.95c0-1.44.21-2.55.63-3.33.42-.78.75-1.77.99-2.97,1.8-7.8,2.28-15.37,1.44-22.69l-.36-2.88c-1.32.12-2.64-.09-3.96-.63-1.32-.54-2.34-1.29-3.06-2.25-.48-1.56.63-2.85,3.33-3.87,2.7-1.02,4.17-1.77,4.41-2.25.24.12.48-.75.72-2.61.24-1.86.51-4.29.81-7.29.3-3,.51-4.86.63-5.58.12-.36.72-.51,1.8-.45,1.08.06,1.98.33,2.7.81.48.48.78.96.9,1.44.12.48.18,1.68.18,3.6,0,1.08-.06,2.04-.18,2.88-.12.84,0,1.29.36,1.35.36.06.63.15.81.27.18.12.57-.09,1.17-.63.6-.54,1.05-.96,1.35-1.26.3-.3.75-.75,1.35-1.35.36-.48.63-.81.81-.99.18-.18.42-.42.72-.72.3-.3.57-.54.81-.72.24-.18.42-.27.54-.27.6-.12,1.2.09,1.8.63.6.54.96,1.17,1.08,1.89.36,1.08-.21,2.67-1.71,4.77-1.5,2.1-3.45,4.05-5.85,5.85-1.8,1.44-2.88,2.58-3.24,3.42-.24.48-.42,2.7-.54,6.66-.12,3.96-.15,7.78-.09,11.44.06,3.66.21,5.43.45,5.31,1.2-1.44,2.91-3.6,5.13-6.48,2.22-2.88,3.99-5.16,5.31-6.84,3-3.96,4.92-5.82,5.76-5.58,1.2.48.9,2.22-.9,5.22-5.52,11.29-9.97,18.97-13.33,23.05-.48.48-1.29,1.5-2.43,3.06-1.14,1.56-2.22,2.79-3.24,3.69-1.02.9-2.07,1.35-3.15,1.35-3.12-.96-4.44-2.64-3.96-5.04ZM504.79,124.03c-.84-.84-.84-1.74,0-2.7,1.08-1.08,2.55-3.57,4.41-7.47,1.86-3.9,2.91-6.09,3.15-6.57,1.08-1.68,1.83-3.15,2.25-4.41.42-1.26,1.05-2.79,1.89-4.59.84-1.44,1.56-3.27,2.16-5.49.6-2.22,1.08-3.75,1.44-4.59.96-.84,2.22-.96,3.78-.36,1.56.6,2.34,1.5,2.34,2.7.12.96-.36,2.79-1.44,5.49-1.08,2.7-3.66,8.32-7.74,16.84-.96,2.04-2.46,4.32-4.5,6.84-2.04,2.52-3.6,4.08-4.68,4.68-1.2.6-2.22.48-3.06-.36ZM532.71,210.12c.24-.6.36-.84.36-.72.24-.6,1.02-2.25,2.34-4.95,1.32-2.7,2.37-4.86,3.15-6.48.78-1.62,1.71-3.63,2.79-6.03,1.08-2.4,1.98-4.56,2.7-6.48.72-1.92,1.2-3.54,1.44-4.86.48-2.28,1.32-5.19,2.52-8.74,1.2-3.54,2.13-6.57,2.79-9.1.66-2.52.93-4.5.81-5.94-.24-.48-.78-.72-1.62-.72-1.92.12-2.94-.12-3.06-.72,0-.84,1.2-1.68,3.6-2.52,1.2-.36,2.04-.42,2.52-.18.96.12,1.86.18,2.7.18,1.08,0,1.86.27,2.34.81.48.54.72,1.35.72,2.43s-.12,2.1-.36,3.06c-.24.96-.51,2.13-.81,3.51-.3,1.38-.51,2.37-.63,2.97-.24,2.16-.99,5.1-2.25,8.83-1.26,3.72-2.01,6.06-2.25,7.02-1.92,7.2-5.47,15.97-10.63,26.3-5.16,10.33-10.21,18.91-15.13,25.76-1.92,3.12-3.99,4.56-6.21,4.32-2.22-.24-4.23-1.92-6.03-5.04-1.32-2.4-1.38-4.02-.18-4.86.84-.6,1.86-.24,3.06,1.08.72.96,1.26,1.44,1.62,1.44,2.64-1.92,7.2-8.7,13.69-20.35ZM530.73,125.02c.96-.66,1.98-.99,3.06-.99.72.12,1.14.3,1.26.54.12.24.24.9.36,1.98.12,1.56-.42,3.6-1.62,6.12-3,6.6-4.14,10.87-3.42,12.79.36.96-.06,2.16-1.26,3.6-1.08,1.32-2.52,2.46-4.32,3.42-1.8.96-3.12,1.26-3.96.9-1.2-.36-1.77-.99-1.71-1.89.06-.9.69-2.61,1.89-5.13.96-2.04,2.25-5.28,3.87-9.73,1.62-4.44,2.85-7.56,3.69-9.37.48-.84,1.2-1.59,2.16-2.25ZM551.62,105.03c-1.2-.06-5.46-.03-12.79.09-1.08.12-1.86.18-2.34.18-6.48.12-9.85-.42-10.09-1.62-.24-.72,0-1.32.72-1.8.72-.48,1.65-.87,2.79-1.17,1.14-.3,1.89-.57,2.25-.81,3.96-1.8,10.09-2.52,18.37-2.16,3.84,0,6.27.06,7.29.18,1.02.12,1.83.42,2.43.9,1.32.96,2.01,2.1,2.07,3.42.06,1.32-.51,2.58-1.71,3.78-.6.48-2.37,1.62-5.31,3.42-2.94,1.8-4.77,2.88-5.49,3.24-2.4-.36-2.94-1.26-1.62-2.7.6-.48,1.5-1.02,2.7-1.62,1.68-.96,2.52-1.8,2.52-2.52,0-.48-.6-.75-1.8-.81ZM539.73,157.98c-.24,1.62-.54,2.79-.9,3.51-.36,1.8-1.11,3.27-2.25,4.41-1.14,1.14-2.49,1.65-4.05,1.53-.96-.36-1.47-.96-1.53-1.8-.06-.84.21-2.4.81-4.68.48-1.68,1.59-4.05,3.33-7.11,1.74-3.06,2.79-5.43,3.15-7.11,0-.36.48-1.14,1.44-2.34,1.8-2.28,2.16-3.78,1.08-4.5-.72-.48-1.05-.87-.99-1.17.06-.3.57-.75,1.53-1.35,1.32-1.08,2.73-1.17,4.23-.27,1.5.9,2.07,2.01,1.71,3.33-.12.36-.24,1.14-.36,2.34-.12,1.2-.3,2.22-.54,3.06-.24.84-.54,1.44-.9,1.8-.24.48-.75,1.53-1.53,3.15-.78,1.62-1.53,2.79-2.25,3.51-1.08.84-1.74,2.07-1.98,3.69Z"/>
    <path class="cls-1" d="M609.8,183.29c0-1.08-.03-1.71-.09-1.89-.06-.18-.45-.21-1.17-.09-1.32.48-2.67,1.2-4.05,2.16-1.38.96-2.85,2.16-4.41,3.6-1.56,1.44-2.7,2.4-3.42,2.88-1.08.72-1.8,1.26-2.16,1.62-.36.36-.72.84-1.08,1.44-.36.6-.9,1.32-1.62,2.16-.72.6-1.68,1.83-2.88,3.69-1.2,1.86-2.34,3.42-3.42,4.68-1.08,1.26-2.22,1.89-3.42,1.89-3.12-.6-3.54-3.24-1.26-7.92.72-1.2,2.07-4.68,4.05-10.45,1.98-5.76,3.21-9.12,3.69-10.09.72-1.32,2.22-6.48,4.5-15.49.48-1.68,1.38-3.45,2.7-5.31,1.32-1.86,2.52-3.09,3.6-3.69,2.76-1.44,4.65-1.59,5.67-.45,1.02,1.14.51,2.79-1.53,4.95-2.16,2.4-3.84,6.03-5.04,10.9-1.2,4.86-2.28,8.32-3.24,10.36-1.56,3.6-1.92,5.4-1.08,5.4.48,0,1.5-.72,3.06-2.16,3.12-2.88,6.24-5.07,9.37-6.57,3.12-1.5,5.52-2.01,7.2-1.53,1.44.48,2.37,1.17,2.79,2.07.42.9.63,2.49.63,4.77-.12,1.56-.33,3.06-.63,4.5-.3,1.44-.72,3.09-1.26,4.95-.54,1.86-.99,3.33-1.35,4.41-.48,1.2-1.08,2.55-1.8,4.05-.72,1.5-1.2,2.49-1.44,2.97-.24.48-.54,1.08-.9,1.8-.36.72-.72,1.26-1.08,1.62-.36.36-.78.72-1.26,1.08-.48.36-1.14.78-1.98,1.26-.72,0-1.53-.36-2.43-1.08-.9-.72-1.41-1.38-1.53-1.98-.24-1.56,0-3.33.72-5.31.72-1.98,1.56-2.97,2.52-2.97,2.16-.24,3.84-4.32,5.04-12.25ZM627.54,121.51c-1.02-2.16-1.47-3.6-1.35-4.32,0-.84.09-1.38.27-1.62.18-.24.75-.48,1.71-.72,2.4-.6,3.96-.18,4.68,1.26.96,2.4,1.74,3.66,2.34,3.78,1.08.12,4.68-1.56,10.81-5.04,2.64-1.56,4.44-2.34,5.4-2.34,1.8.12,2.88.72,3.24,1.8.36,1.08.12,2.19-.72,3.33-.84,1.14-1.86,1.95-3.06,2.43-.36.12-1.11.51-2.25,1.17-1.14.66-2.16,1.26-3.06,1.8-.9.54-1.86,1.17-2.88,1.89-1.02.72-1.83,1.41-2.43,2.07-.6.66-.96,1.29-1.08,1.89,1.44,3.72,3.36,8.1,5.76,13.15,2.4,5.04,4.44,8.41,6.12,10.09.96,1.08,1.92,2.4,2.88,3.96.96,1.56,1.44,2.58,1.44,3.06,0,.6.51,1.38,1.53,2.34,1.02.96,1.83,1.44,2.43,1.44.72,0,1.38-1.92,1.98-5.76.48-3.72,2.64-9.12,6.48-16.21,0-.36.51-.96,1.53-1.8,1.02-.84,1.77-1.26,2.25-1.26.72,0,1.71.57,2.97,1.71,1.26,1.14,1.89,2.01,1.89,2.61s-.54,1.2-1.62,1.8c-1.44.84-2.79,2.76-4.05,5.76-1.26,3-2.25,6.48-2.97,10.45,0,.72-.6,2.55-1.8,5.49-1.2,2.94-1.44,4.95-.72,6.03,1.08,2.64,3.39,6.24,6.93,10.81,3.54,4.56,5.55,7.27,6.03,8.1,1.2,1.8,2.55,3.15,4.05,4.05,1.5.9,2.79,1.17,3.87.81.96-.36,1.77-.36,2.43,0,.66.36,1.35,1.26,2.07,2.7.48,1.32,1.41,2.58,2.79,3.78,1.38,1.2,2.25,2.22,2.61,3.06,0,.6-.51,1.56-1.53,2.88-1.02,1.32-1.83,2.04-2.43,2.16-.36.6-1.47.18-3.33-1.26-1.86-1.44-3.81-3.06-5.85-4.86-2.04-1.8-3.3-2.82-3.78-3.06-1.56-.96-3.6-3.12-6.12-6.48-4.68-6.24-7.45-9.88-8.29-10.9-.84-1.02-1.56-1.35-2.16-.99-.72.36-1.98,3.42-3.78,9.19-.96,2.76-2.37,6.6-4.23,11.53-1.86,4.92-3.15,8.47-3.87,10.63,0,.48-.87,1.59-2.61,3.33s-2.91,2.61-3.51,2.61c-.36-.12-.84-.3-1.44-.54-.96-.36-1.5-.81-1.62-1.35-.12-.54-.06-2.37.18-5.49v-.36c.12-1.8.27-3.42.45-4.86.18-1.44.3-2.46.36-3.06.06-.6.33-1.74.81-3.42.48-1.68.78-2.88.9-3.6.48-2.16.93-3.57,1.35-4.23.42-.66.87-.87,1.35-.63.36-.12.6.18.72.9,0,.36.06,1.14.18,2.34,0,1.92.12,2.88.36,2.88.96,0,2.04-1.92,3.24-5.76.12-.6.96-3.36,2.52-8.29,1.56-4.92,2.46-7.8,2.7-8.65.36-1.56.09-3.18-.81-4.86-.9-1.68-2.13-3.48-3.69-5.4-1.56-1.92-2.52-3.36-2.88-4.32-1.44-2.64-3.3-5.73-5.58-9.28-2.28-3.54-4.44-7.23-6.48-11.08-.48-.84-1.05-2.01-1.71-3.51-.66-1.5-1.11-2.43-1.35-2.79-.24-.36-.69-.75-1.35-1.17-.66-.42-1.44-.39-2.34.09-.9.48-2.07,1.26-3.51,2.34-1.08.84-2.04,1.53-2.88,2.07-.84.54-1.53.9-2.07,1.08-.54.18-1.41.51-2.61.99-1.2.48-2.34.96-3.42,1.44-11.77,5.04-19.66,8.19-23.68,9.46-4.02,1.26-6.51,1.29-7.47.09-.6-.6-.84-1.41-.72-2.43.12-1.02.6-1.83,1.44-2.43,2.16-.96,6.78-2.73,13.87-5.31,7.08-2.58,11.64-4.41,13.69-5.49.84-.48,2.37-1.14,4.59-1.98,2.22-.84,3.63-1.44,4.23-1.8,1.08-.6,2.55-1.68,4.41-3.24,1.86-1.56,2.79-2.58,2.79-3.06,0-.24-.51-1.44-1.53-3.6ZM683.46,100.89c-1.32-1.5-3.36-3.18-6.12-5.04-2.76-1.86-4.26-2.85-4.5-2.97-.84-.48-1.89-1.17-3.15-2.07-1.26-.9-2.43-1.68-3.51-2.34-1.08-.66-2.1-1.11-3.06-1.35-1.32,0-2.43-.66-3.33-1.98-.9-1.32-.75-2.58.45-3.78,1.2-1.08,3.27-1.26,6.21-.54,2.94.72,4.83,1.62,5.67,2.7,1.2,1.08,3.09,2.4,5.67,3.96,2.58,1.56,4.71,2.94,6.39,4.14,1.68,1.2,3.15,2.94,4.41,5.22,1.26,2.28,1.77,4.98,1.53,8.1-.24,1.44-.45,2.31-.63,2.61-.18.3-.57.51-1.17.63-2.16.24-3.24-.6-3.24-2.52.24-1.68-.3-3.27-1.62-4.77Z"/>
    <path class="cls-1" d="M763.43,174.73c-2.64-2.22-4.38-3.51-5.22-3.87-.24,0-1.59-.75-4.05-2.25-2.46-1.5-4.23-2.37-5.31-2.61-.24.24-.45,1.77-.63,4.59-.18,2.82-.36,5.76-.54,8.83-.18,3.06-.33,4.77-.45,5.13-1.44,14.77-2.88,24.62-4.32,29.54-.72,3.48-2.22,5.1-4.5,4.86-1.2-.12-1.86-.87-1.98-2.25-.12-1.38,0-3.12.36-5.22.36-2.1.48-3.51.36-4.23.24-1.68.99-5.55,2.25-11.62,1.26-6.06,1.89-10.96,1.89-14.68.36-2.4.57-5.16.63-8.29.06-3.12-.03-5.76-.27-7.92-.24-2.16-.54-3.18-.9-3.06-.96,1.68-3.15,6.01-6.57,12.97-3.42,6.96-5.97,11.77-7.65,14.41-4.32,8.89-6.19,14.35-5.58,16.39-.12,2.28-.39,3.9-.81,4.86-.42.96-1.17,1.68-2.25,2.16-.96.36-1.86.3-2.7-.18-.6-.36-.96-.75-1.08-1.17-.12-.42-.18-1.59-.18-3.51.36-3.24,1.05-6.48,2.07-9.73,1.02-3.24,1.98-5.73,2.88-7.47.9-1.74,2.22-4.14,3.96-7.2,1.74-3.06,2.85-5.07,3.33-6.03,1.68-3.36,3.3-6.75,4.86-10.18,1.56-3.42,3.21-7.23,4.95-11.44,1.74-4.2,3.15-7.62,4.23-10.27,1.08-2.4,1.32-3.6.72-3.6-.24,0-.66.18-1.26.54-9.25,3.96-15.37,5.94-18.37,5.94-1.32,0-2.22-.21-2.7-.63-.48-.42-.72-1.23-.72-2.43-.36-.72.03-1.74,1.17-3.06,1.14-1.32,2.34-2.28,3.6-2.88,1.26-.6,2.25-.6,2.97,0,.6.36,1.92.24,3.96-.36,1.8-.48,5.01-1.86,9.64-4.14,4.62-2.28,7.17-3.72,7.66-4.32.72-1.08,2.1-2.22,4.14-3.42,2.04-1.2,3.48-1.14,4.32.18,1.44,1.44,1.14,3.6-.9,6.48-.84.96-2.22,2.94-4.14,5.94l-2.7,4.32v5.4c0,3.6.12,5.65.36,6.12.96,1.32,4.68,3.93,11.17,7.83,6.48,3.9,10.33,6.75,11.53,8.56.96,1.44,1.23,2.91.81,4.41-.42,1.5-1.29,2.25-2.61,2.25-.96-.24-2.76-1.47-5.4-3.69ZM744.25,110.97c2.58.54,4.47,1.11,5.67,1.71.36.36.54,1.14.54,2.34s-.24,2.16-.72,2.88c-.96,1.44-5.58.84-13.87-1.8-2.04-.6-3.06-.78-3.06-.54-1.08,0-1.77-.33-2.07-.99-.3-.66-.27-1.89.09-3.69.48-2.64,1.05-4.08,1.71-4.32.66-.24,2.49.42,5.49,1.98,1.56,1.08,3.63,1.89,6.21,2.43ZM832.23,135.38c0,2.16-.03,5.1-.09,8.83-.06,3.72-.12,6.21-.18,7.47-.06,1.26-.15,3.06-.27,5.4-.12,2.34-.33,4.05-.63,5.13-.3,1.08-.66,2.34-1.08,3.78-.42,1.44-.93,2.76-1.53,3.96-.84.48-1.65.75-2.43.81-.78.06-1.47-.09-2.07-.45-.6-.36-1.14-.75-1.62-1.17-.48-.42-.96-1.02-1.44-1.8-.48-.78-.87-1.38-1.17-1.8-.3-.42-.63-1.02-.99-1.8-.36-.78-.54-1.23-.54-1.35,0-1.56,1.02-1.5,3.06.18.84.72,1.53,1.11,2.07,1.17.54.06.87,0,.99-.18.12-.18.27-.72.45-1.62.18-.9.33-1.47.45-1.71,0-1.44.12-3.96.36-7.56.24-3.6.45-6.84.63-9.73s.24-5.88.18-9.01c-.06-3.12-.33-5.4-.81-6.84-4.08-8.4-8.53-11.17-13.33-8.29-2.64,1.56-5.13,4.17-7.47,7.83-2.34,3.66-3.39,6.93-3.15,9.82h2.16c1.2-.12,3.27-1.05,6.21-2.79,2.94-1.74,5.79-3.18,8.56-4.32,2.76-1.14,4.92-1.11,6.48.09.84,1.08.72,2.4-.36,3.96-1.08,1.56-2.16,2.34-3.24,2.34-.36-.24-1.53.15-3.51,1.17-1.98,1.02-4.08,2.13-6.3,3.33-2.22,1.2-3.63,1.92-4.23,2.16-3.36,1.08-5.65,2.1-6.84,3.06-.72.6-1.08,1.92-1.08,3.96s.18,3.12.54,3.24c.84.36,2.97-.51,6.39-2.61,3.42-2.1,6.39-4.29,8.92-6.57,1.68-1.44,3-2.28,3.96-2.52.96-.24,1.86.18,2.7,1.26.6.84.87,1.47.81,1.89-.06.42-.51,1.23-1.35,2.43-.84,1.2-3.54,3.48-8.11,6.84-4.56,3.36-7.92,5.58-10.09,6.66-.36.24-.84.48-1.44.72-.6.24-.96.42-1.08.54s-.33.27-.63.45c-.3.18-.48.36-.54.54-.06.18-.18.39-.36.63-.18.24-.3.57-.36.99-.06.42-.12.81-.18,1.17-.06.36-.15.96-.27,1.8-.36,3-.6,4.86-.72,5.58-.12,1.08,0,1.62.36,1.62.48,0,1.92-.81,4.32-2.43,2.4-1.62,4.62-3.27,6.66-4.95,2.16-1.8,3.84-2.7,5.04-2.7,1.08,0,1.8.36,2.16,1.08.84,1.8.06,5.1-2.34,9.91-1.2,2.28-1.56,3.54-1.08,3.78.6.12,1.5.87,2.7,2.25,1.2,1.38,2.1,2.55,2.7,3.51.6,1.2.9,3.39.9,6.57s.33,5.04.99,5.58c.66.54,3.51,1.11,8.56,1.71,4.08.48,11.29,1.68,21.61,3.6,5.4,1.08,8.92,1.62,10.54,1.62s3.15-.42,4.59-1.26c.12-.12.42-.36.9-.72.48-.36.78-.63.9-.81.12-.18.33-.45.63-.81.3-.36.48-.69.54-.99.06-.3.06-.69,0-1.17-.06-.48-.15-1.02-.27-1.62,0-.48-.84-2.52-2.52-6.12-1.44-3.36-1.14-5.04.9-5.04,1.44-.12,2.94,1.17,4.5,3.87,1.56,2.7,2.55,5.49,2.97,8.38.42,2.88.21,5.29-.63,7.2-.48,1.32-1.14,2.43-1.98,3.33-.84.9-1.92,1.53-3.24,1.89-1.32.36-2.55.63-3.69.81-1.14.18-2.61.15-4.41-.09-1.8-.24-3.3-.45-4.5-.63-1.2-.18-2.82-.45-4.86-.81-2.04-.36-3.54-.6-4.5-.72-2.28-.24-4.57-.6-6.84-1.08-2.28-.48-4.92-.84-7.92-1.08-7.81-.72-13.39-1.62-16.75-2.7-1.92-.72-2.97-1.92-3.15-3.6-.18-1.68.15-4.02.99-7.02.24-1.2.3-2.04.18-2.52-.12-.48-.54-1.44-1.26-2.88-.36-.72-.69-1.29-.99-1.71-.3-.42-.57-.72-.81-.9-.24-.18-.48-.18-.72,0-.24.18-.45.39-.63.63-.18.24-.48.72-.9,1.44-.42.72-.81,1.32-1.17,1.8-3.48,6.24-7.72,12.31-12.7,18.19-4.98,5.88-8.32,8.83-10,8.83-1.56,0-2.46-.63-2.7-1.89-.24-1.26.24-2.79,1.44-4.59.48-.48,1.11-1.5,1.89-3.06.78-1.56,1.65-2.52,2.61-2.88,1.44-.48,3.42-2.28,5.94-5.4,2.52-3.12,4.8-6.54,6.84-10.27.6-1.32,1.44-2.82,2.52-4.5,1.08-1.68,1.8-2.88,2.16-3.6-.24-.24-1.8.42-4.68,1.98-2.88,1.32-4.83,2.01-5.85,2.07-1.02.06-1.89-.57-2.61-1.89-.6-.6-.6-1.89,0-3.87.6-1.98.6-3.21,0-3.69-.48-1.08-.48-2.82,0-5.22.84-4.32,1.47-11.14,1.89-20.44.42-9.3.33-16.66-.27-22.06-.48-5.04-.69-8.19-.63-9.46.06-1.26.51-2.43,1.35-3.51,1.68-2.04,3.12-2.46,4.32-1.26.72.72,1.14,2.88,1.26,6.48v1.62c0,1.2.03,2.01.09,2.43.06.42.15.84.27,1.26.12.42.27.51.45.27.18-.24.42-.54.72-.9.3-.36.75-.96,1.35-1.8,2.64-3.96,5.64-7.02,9-9.19,1.08-.84,1.89-1.32,2.43-1.44.54-.12,1.65-.12,3.33,0,5.64.36,10.09,3.78,13.33,10.27l2.34,4.5v9.73Z"/>
    <path class="cls-1" d="M904.45,193.37c1.2-.6,2.28-1.2,3.24-1.8.96-.6,2.13-1.47,3.51-2.61,1.38-1.14,2.4-2.01,3.06-2.61.66-.6,1.68-1.53,3.06-2.79,1.38-1.26,2.25-2.07,2.61-2.43-.24.48,1.14-.75,4.14-3.69,3-2.94,6.84-6.75,11.53-11.44,4.68-4.68,8.61-8.61,11.8-11.8,3.18-3.18,6.03-6.09,8.56-8.74,6.48-6.48,9.6-9.84,9.37-10.09-.6.12-1.62.57-3.06,1.35-1.44.78-2.4,1.41-2.88,1.89-.6.6-1.77,1.26-3.51,1.98-1.74.72-2.91,1.26-3.51,1.62-2.28,1.08-3.75,1.68-4.41,1.8-.66.12-1.47-.12-2.43-.72-1.32-.6-1.77-1.56-1.35-2.88.42-1.32,1.23-2.1,2.43-2.34-.12.24.45-.03,1.71-.81,1.26-.78,2.58-1.8,3.96-3.06,1.38-1.26,2.13-2.31,2.25-3.15.6-1.32,1.26-3.6,1.98-6.84.72-3.24.96-5.1.72-5.58-.36-1.08-1.68-1.02-3.96.18-2.52,1.32-4.41,1.95-5.67,1.89-1.26-.06-2.49-.69-3.69-1.89-1.56-1.56-2.28-1.26-2.16.9.12.72.42,2.4.9,5.04.48,7.2.3,11.53-.54,12.97-.72,1.32-1.92,1.62-3.6.9-1.32-.72-2.19-1.89-2.61-3.51-.42-1.62-.75-5.49-.99-11.62-.24-4.8-.57-8.73-.99-11.8-.42-3.06-.81-5.37-1.17-6.93-.36-1.56-1.2-4.62-2.52-9.19-1.08-3-1.44-4.98-1.08-5.94.6-1.44,1.68-2.28,3.24-2.52,1.92-.36,3.42,1.08,4.5,4.32.72,2.04,1.2,3.3,1.44,3.78.36.72.84,1.11,1.44,1.17.6.06.96-.15,1.08-.63,3.72-4.2,13.57-9.01,29.54-14.41,1.68-.48,4.11-.66,7.29-.54,3.18.12,5.55.42,7.11.9,7.44,3.12,10.27,7.74,8.46,13.87-.6,1.44-.9,2.64-.9,3.6s-.57,2.97-1.71,6.03c-1.14,3.06-2.31,5.56-3.51,7.47-1.2,2.16-1.86,4.14-1.98,5.94-.24,1.32-.6,2.34-1.08,3.06-.48.72-2.04,2.4-4.68,5.04-3.48,3.6-5.22,5.52-5.22,5.76,0,.72-.69,2.31-2.07,4.77-1.38,2.46-2.61,4.29-3.69,5.49-6.01,6.73-8.77,10.33-8.29,10.81.24.24,1.98.18,5.22-.18,1.56-.24,6.51-.27,14.86-.09,8.34.18,14.98.09,19.9-.27,15.73-.96,24.37-.6,25.94,1.08.6.72.81,1.62.63,2.7-.18,1.08-.51,1.98-.99,2.7-.84.96-1.71,1.65-2.61,2.07-.9.42-2.22.81-3.96,1.17-1.74.36-2.97.6-3.69.72-1.92.6-3.21.81-3.87.63-.66-.18-.99-.87-.99-2.07,0-.6-.15-1.08-.45-1.44-.3-.36-.78-.54-1.44-.54s-1.35.03-2.07.09c-.72.06-1.74.12-3.06.18-1.32.06-2.58.09-3.78.09-15.73,0-27.62-.18-35.66-.54-.24,0-1.17-.27-2.79-.81-1.62-.54-3.15-.87-4.59-.99l-3.42-.36-2.34,2.7c-.96.96-3.6,3.69-7.92,8.19-4.32,4.5-8.1,8.28-11.35,11.35s-6.01,5.43-8.29,7.11c-1.2.84-2.37,1.8-3.51,2.88-1.14,1.08-2.19,1.86-3.15,2.34-.72.24-1.5.84-2.34,1.8-.84.96-1.62,1.62-2.34,1.98-3,1.8-6.28,3.45-9.82,4.95-3.54,1.5-6.16,1.89-7.83,1.17-.96-.48-1.59-1.08-1.89-1.8-.3-.72-.24-1.53.18-2.43.42-.9.87-1.71,1.35-2.43.48-.72,1.08-1.5,1.8-2.34.72-.84,1.14-1.38,1.26-1.62.48-.6,1.08-.96,1.8-1.08.72-.12,1.23.06,1.53.54.3.48.21,1.32-.27,2.52-.12.48-.15.78-.09.9.06.12.39.18.99.18,1.08-.24,2.22-.66,3.42-1.26ZM941.55,112.32c.6,2.16,1.08,3.24,1.44,3.24.48-.12,2.82-1.2,7.02-3.24,4.2-2.04,6.54-3.18,7.02-3.42,1.44-.6,2.28-1.26,2.52-1.98.84-3.36,1.44-6.72,1.8-10.09.12-2.4.12-3.75,0-4.05-.12-.3-.72-.69-1.8-1.17-.96.24-2.07.72-3.33,1.44-1.26.72-2.79,1.71-4.59,2.97-1.8,1.26-2.88,2.07-3.24,2.43-1.92,1.2-3.69,2.76-5.31,4.68-1.62,1.92-2.43,3.42-2.43,4.5,0,.96.3,2.52.9,4.68ZM957.76,175.9c.24.96.24,3.84,0,8.65-.48,8.41-.54,13.33-.18,14.77.24.84.03,1.8-.63,2.88-.66,1.08-1.53,1.92-2.61,2.52-.36.24-.69.36-.99.36h-.9c-.3,0-.6-.15-.9-.45-.3-.3-.51-.51-.63-.63-.12-.12-.36-.33-.72-.63-.36-.3-.54-.51-.54-.63-.48-1.2-.69-2.31-.63-3.33.06-1.02.33-2.61.81-4.77.48-2.16.72-3.48.72-3.96.24-.96.51-3.54.81-7.74.3-4.2.57-6.72.81-7.56.36-.6,1.2-.9,2.52-.9,1.8,0,2.82.48,3.06,1.44ZM961.91,126.37c-.12.6-.15.96-.09,1.08.06.12.51.12,1.35,0,.48-.12,3.48-1.86,9.01-5.22.96-.6,1.86-1.38,2.7-2.34.84-.96,1.71-2.16,2.61-3.6s1.59-2.58,2.07-3.42c.48-.84,1.14-2.16,1.98-3.96.84-1.8,1.32-2.88,1.44-3.24.72-1.08,1.44-2.76,2.16-5.04.72-2.28,1.14-4.2,1.26-5.76.12-.72.21-1.32.27-1.8.06-.48,0-.93-.18-1.35-.18-.42-.3-.78-.36-1.08-.06-.3-.27-.6-.63-.9-.36-.3-.6-.48-.72-.54-.12-.06-.45-.27-.99-.63-.54-.36-.87-.6-.99-.72-1.8-.36-4.02-.63-6.66-.81-2.64-.18-4.56-.03-5.76.45-.12,0-.48.15-1.08.45-.6.3-1.02.54-1.26.72-.24.18-.54.48-.9.9-.36.42-.51.84-.45,1.26.06.42.27.99.63,1.71.48.84.63,1.98.45,3.42-.18,1.44-.18,2.79,0,4.05.18,1.26.69,1.71,1.53,1.35.6-.24,2.04-1.38,4.32-3.42,2.88-2.4,5.16-3.54,6.84-3.42.84,0,1.29.6,1.35,1.8.06,1.2-.15,2.04-.63,2.52-.48.72-2.19,2.34-5.13,4.86-2.94,2.52-4.59,3.78-4.95,3.78-4.68,2.28-7.74,8.59-9.19,18.91ZM986.13,167.35c.18,1.26.33,2.07.45,2.43,1.92,9.97,2.1,19.21.54,27.74-.24,2.04-.48,10.57-.72,25.58l-.36,22.51-1.26,1.44c-.48.96-1.26,1.38-2.34,1.26-1.08-.12-2.01-.42-2.79-.9-.78-.48-1.53-1.02-2.25-1.62-.6-.96-.48-2.64.36-5.04.36.12.63-2.04.81-6.48.18-4.44.33-9.03.45-13.78.12-4.74.24-7.29.36-7.65-.12-3,.03-7.59.45-13.78.42-6.18.69-11.17.81-14.95.12-3.78-.24-8.31-1.08-13.6-.36-2.16-.54-3.51-.54-4.05s.24-1.05.72-1.53c.6-.6,1.5-.9,2.7-.9s2.1.3,2.7.9c.48.36.81,1.17.99,2.43Z"/>
  </g>
</svg>